<?xml version="1.0" encoding="UTF-8" standalone="no"?>
<!-- Created with Inkscape (http://www.inkscape.org/) -->

<svg
   width="141.37387mm"
   height="73.416611mm"
   viewBox="0 0 141.37387 73.416611"
   version="1.1"
   id="svg5"
   xml:space="preserve"
   inkscape:version="1.2.2 (732a01da63, 2022-12-09)"
   sodipodi:docname="eo-resize.svg"
   xmlns:inkscape="http://www.inkscape.org/namespaces/inkscape"
   xmlns:sodipodi="http://sodipodi.sourceforge.net/DTD/sodipodi-0.dtd"
   xmlns:xlink="http://www.w3.org/1999/xlink"
   xmlns="http://www.w3.org/2000/svg"
   xmlns:svg="http://www.w3.org/2000/svg"><sodipodi:namedview
     id="namedview7"
     pagecolor="#505050"
     bordercolor="#eeeeee"
     borderopacity="1"
     inkscape:showpageshadow="0"
     inkscape:pageopacity="0"
     inkscape:pagecheckerboard="0"
     inkscape:deskcolor="#505050"
     inkscape:document-units="mm"
     showgrid="false"
     inkscape:zoom="0.89263468"
     inkscape:cx="211.17262"
     inkscape:cy="190.44745"
     inkscape:window-width="1920"
     inkscape:window-height="1017"
     inkscape:window-x="-8"
     inkscape:window-y="1232"
     inkscape:window-maximized="1"
     inkscape:current-layer="layer1" /><defs
     id="defs2"><linearGradient
       id="linearGradient4173"><stop
         style="stop-color:#5a516c;stop-opacity:1;"
         offset="0"
         id="stop17840" /><stop
         style="stop-color:#806595;stop-opacity:1;"
         offset="0"
         id="stop17838" /><stop
         style="stop-color:#51566c;stop-opacity:1;"
         offset="0.63665599"
         id="stop17836" /><stop
         style="stop-color:#babece;stop-opacity:1;"
         offset="1"
         id="stop17834" /></linearGradient><linearGradient
       id="linearGradient4173-1"><stop
         style="stop-color:#babece;stop-opacity:1;"
         offset="0"
         id="stop4169" /><stop
         style="stop-color:#51566c;stop-opacity:1;"
         offset="0"
         id="stop6430" /><stop
         style="stop-color:#806595;stop-opacity:1;"
         offset="0.39318323"
         id="stop8973" /><stop
         style="stop-color:#5a516c;stop-opacity:1;"
         offset="1"
         id="stop10427" /></linearGradient><linearGradient
       id="linearGradient4101"
       inkscape:swatch="gradient"><stop
         style="stop-color:#5a516c;stop-opacity:1;"
         offset="0"
         id="stop4097" /><stop
         style="stop-color:#5a516c;stop-opacity:0;"
         offset="1"
         id="stop4099" /></linearGradient><linearGradient
       inkscape:collect="always"
       xlink:href="#linearGradient4173"
       id="linearGradient17843"
       x1="38.167812"
       y1="73.313766"
       x2="179.54169"
       y2="73.313766"
       gradientUnits="userSpaceOnUse" /></defs><g
     inkscape:label="Layer 1"
     inkscape:groupmode="layer"
     id="layer1"
     transform="translate(-38.167814,-36.605456)"><path
       style="opacity:1;mix-blend-mode:normal;fill:url(#linearGradient17843);fill-opacity:1;fill-rule:nonzero;stroke:none;stroke-width:1;stroke-dasharray:none;stroke-opacity:1;paint-order:markers fill stroke"
       d="m 58.648213,106.97787 c 0.441538,-2.78206 0.341431,-2.99355 -1.163019,-2.45693 -8.126874,2.89881 -9.651789,2.41678 -8.420785,-2.66183 1.571802,-6.484625 0.228776,-9.026365 -5.640789,-10.675465 -6.228466,-1.74992 -6.881113,-3.58501 -2.170712,-6.10358 1.77775,-0.95052 3.54666,-1.91043 3.930913,-2.13311 0.384252,-0.2227 -0.103725,-1.70234 -1.084373,-3.28809 -2.198825,-3.5556 -2.059675,-14.07029 0.226719,-17.13165 0.750362,-1.00468 1.634611,-2.81314 1.964998,-4.01877 0.797926,-2.91175 5.125477,-8.87547 8.770453,-12.08644 2.301143,-2.02713 2.968104,-3.25347 3.079813,-5.66282 0.09359,-2.01868 0.539494,-3.07535 1.297751,-3.07535 1.024677,0 1.686425,2.65115 1.185497,4.74945 -0.09595,0.40189 0.149796,0.4567 0.54606,0.12176 0.758533,-0.64105 0.870153,-1.01186 1.044725,-3.47077 0.06287,-0.88576 0.559972,-1.38222 1.188823,-1.18736 0.59441,0.18424 0.954695,0.77778 0.800634,1.31909 -0.191529,0.6729 0.240216,0.58623 1.364974,-0.27401 6.127416,-4.68638 3.69211,-0.33232 -3.243273,5.79864 -18.927587,16.73218 -21.412882,33.942 -6.027277,41.73687 11.54902,5.8511 21.933647,5.35658 32.298575,-1.53814 3.195424,-2.12559 3.308424,-2.148 2.273818,-0.45077 -0.76463,1.25434 0.100309,0.81629 2.905796,-1.47161 4.85415,-3.9586 4.92192,-4.41465 0.65601,-4.41465 -3.13194,0 -3.31182,0.11794 -2.90735,1.90614 0.38051,1.68213 0.23953,1.81963 -1.200635,1.16999 -1.012388,-0.45674 -3.92907,-0.51994 -7.683972,-0.16641 -26.659377,2.50946 -33.185679,-16.17963 -14.061078,-40.26608 1.94792,-2.45331 3.253078,-3.37943 4.762486,-3.37943 2.079218,0 2.079218,0 -0.475681,2.28339 -1.405198,1.25588 -3.010181,3.03244 -3.566627,3.94791 -0.556449,0.91549 -1.364703,1.48016 -1.79612,1.25482 -1.054287,-0.55067 -3.682514,3.84632 -2.92128,4.88725 0.394426,0.53936 0.207343,0.61642 -0.543893,0.22402 -0.838414,-0.43791 -0.992631,-0.26227 -0.575793,0.65575 0.368503,0.81156 0.235183,1.07932 -0.377996,0.75905 -0.639168,-0.33384 -0.758145,0.0697 -0.365757,1.24074 0.471415,1.40685 0.392876,1.52799 -0.414674,0.63953 -0.823139,-0.90558 -0.922103,-0.8102 -0.569567,0.54903 0.24175,0.93205 0.07186,1.45974 -0.391953,1.21749 -0.485813,-0.25376 -0.600349,0.41422 -0.281746,1.64303 0.432736,1.66894 0.341051,1.858 -0.472645,0.97459 -0.824949,-0.89563 -0.918936,-0.76204 -0.514036,0.73068 0.272532,1.0047 0.514199,2.97756 0.537057,4.38413 0.03801,2.33849 0.247469,2.11959 2.446787,-2.55739 4.546555,-9.66849 15.541338,-23.01669 18.958613,-23.01669 2.356021,0 2.503627,-0.28739 -2.627199,5.11481 -6.880937,7.2449 -9.55469,11.81121 -5.75334,9.82573 0.450427,-0.23528 0.595117,-0.73384 0.321515,-1.10795 -0.273576,-0.37411 -0.08539,-0.72131 0.418194,-0.77153 0.503593,-0.0503 1.29208,-0.13237 1.752194,-0.18263 0.46011,-0.0503 1.724584,-0.74 2.809942,-1.53277 1.085358,-0.79278 2.696774,-1.34143 3.580931,-1.21924 1.091588,0.15079 1.395593,-0.0677 0.947161,-0.68088 -0.445491,-0.60916 -0.304098,-0.71694 0.434453,-0.33119 0.616738,0.32214 1.374728,0.18924 1.735784,-0.30459 0.662933,-0.90654 6.947125,-1.66 6.947125,-0.83296 0,1.19762 -3.043575,3.89886 -6.73913,5.98108 -2.237586,1.26079 -4.986457,3.15716 -6.108583,4.21421 -1.122128,1.05703 -1.736121,1.42866 -1.364428,0.82584 0.450492,-0.7306 0.05654,-0.63714 -1.18162,0.28033 -1.021587,0.75699 -1.676948,1.62314 -1.456365,1.92478 0.220577,0.30164 -1.441699,1.98394 -3.693956,3.73847 -2.252259,1.75451 -3.981119,3.29004 -3.84191,3.41227 0.139204,0.12216 -0.639365,0.88714 -1.730167,1.69974 -1.090804,0.81258 -1.5014,1.27092 -0.912433,1.01848 0.704205,-0.30182 0.895202,-0.0721 0.557849,0.67083 -0.282139,0.62138 -0.927413,0.91333 -1.433922,0.64877 -0.576177,-0.30095 -0.715742,-0.029 -0.372817,0.72612 0.301451,0.66391 0.211943,1.12888 -0.19892,1.03322 -0.791193,-0.18423 -0.92796,0.14778 -0.906703,2.20083 0.01139,1.09279 0.135099,1.11935 0.851357,0.18263 0.460968,-0.60282 0.844078,-0.8116 0.851358,-0.46397 0.0071,0.34762 0.888643,0.15079 1.958584,-0.43723 1.069939,-0.5881 3.501623,-1.49782 5.403737,-2.0216 1.902115,-0.52378 4.711889,-1.75643 6.243945,-2.73921 1.532053,-0.98277 4.450071,-2.19526 6.48448,-2.69443 3.698931,-0.90764 3.698931,-0.90764 8.886524,-11.73733 2.85318,-5.95634 5.85774,-11.18055 6.676836,-11.60939 2.49637,-1.30697 3.38456,0.2417 2.48152,4.3268 -0.77401,3.50145 -0.0859,6.18633 1.58571,6.18633 0.40721,0 3.30424,-3.39896 6.43791,-7.55325 6.12257,-8.11665 14.98052,-12.034 13.09422,-5.79081 -0.33541,1.11012 -0.73433,2.51161 -0.88655,3.11442 -0.15227,0.60282 -0.52179,1.61726 -0.82132,2.2543 -2.90694,6.18318 4.83814,4.70132 9.72101,-1.8599 3.0868,-4.14776 4.54807,-5.48086 6.02132,-5.49307 2.5721,-0.0212 2.49674,0.24753 -1.29692,4.62714 -3.60248,4.15896 -1.93877,3.56174 6.20782,-2.2283 2.60559,-1.85189 4.20439,-2.41498 6.85677,-2.41498 3.45894,0 3.45894,0 -1.23636,2.98009 -2.58242,1.63904 -4.5869,3.31128 -4.45444,3.71607 0.13235,0.40479 -0.51529,1.77644 -1.43947,3.04808 -0.9242,1.27166 -2.48887,4.44936 -3.47701,7.06159 -0.98819,2.61221 -2.21261,5.8156 -2.72097,7.11868 -0.74572,1.91152 -0.65409,2.68788 0.47444,4.01878 1.3987,1.64957 1.3987,1.64957 0.83194,-0.33459 -0.40939,-1.43328 -0.0627,-2.52569 1.24871,-3.93465 0.99847,-1.07277 1.81541,-2.19354 1.81541,-2.49061 0,-1.79897 4.64038,-7.37012 5.30402,-6.36792 0.82374,1.24397 -0.68578,9.19576 -2.00196,10.54596 -1.13788,1.16725 -0.14249,4.80601 1.78351,6.51934 1.17163,1.04231 1.44161,2.18691 1.14075,4.83625 -0.51085,4.49872 0.23233,4.41666 1.83456,-0.20262 1.2807,-3.69216 1.31602,-5.7256 0.17253,-9.92224 -0.54467,-1.99886 -0.18592,-2.6534 3.00367,-5.48016 1.99224,-1.7656 5.14227,-4.60027 7.0001,-6.29929 1.85779,-1.699 3.37782,-2.74822 3.37782,-2.33161 0,0.41662 0.44916,0.52287 0.99818,0.23613 1.25545,-0.65574 0.2245,0.94579 -1.92668,2.99253 -0.84472,0.80375 -1.66221,1.94661 -1.81672,2.53966 -0.15456,0.59306 -1.16407,1.69072 -2.24352,2.43927 -3.65654,2.53559 -5.66674,7.07742 -3.13245,7.07742 0.9818,0 1.20845,0.37514 0.77264,1.27869 -0.33921,0.70331 -0.91652,3.476 -1.28286,6.16156 -0.40633,2.97829 -1.5135,6.16416 -2.83859,8.16778 -2.17245,3.28493 -2.17245,3.28493 -0.13366,2.49986 1.12133,-0.43178 1.83181,-1.06812 1.57882,-1.41408 -0.25293,-0.34593 0.12973,-0.82031 0.8509,-1.0541 2.60219,-0.84391 6.6466,-7.27544 6.68716,-10.63409 0.0575,-4.76493 -0.23136,-5.65013 -1.68989,-5.17713 -0.91233,0.29587 -1.08516,0.13336 -0.58529,-0.55012 0.53205,-0.72755 0.24345,-0.86699 -1.15506,-0.55792 -2.7963,0.618 -2.37541,0.2712 3.79222,-3.12481 7.54611,-4.15501 9.42023,-6.7526 2.83822,-3.93383 -2.55552,1.09442 -4.11027,1.48369 -3.51832,0.88089 0.58337,-0.59405 0.84215,-1.26473 0.5751,-1.49044 -0.51925,-0.43881 5.97679,-4.37917 8.49806,-5.15473 1.64156,-0.50495 2.08606,-1.97268 0.59745,-1.97268 -0.50359,0 -0.63802,0.37962 -0.29867,0.84358 0.3822,0.52268 0.23724,0.64525 -0.38129,0.32223 -1.42949,-0.74664 -1.33069,-0.87294 2.07337,-2.65094 3.27199,-1.70899 3.56383,-2.87456 0.35656,-1.42391 -3.55652,1.60858 -0.85933,-0.60602 3.49707,-2.87139 4.75045,-2.47027 6.66316,-0.62643 2.5854,2.49233 -0.95106,0.7274 -1.72918,1.59141 -1.72918,1.92 0,1.83397 -5.19942,9.41553 -8.18978,11.94205 -3.48231,2.94214 -3.48231,2.94214 -3.62469,9.15382 -0.10783,4.70268 0.0195,5.50166 0.52576,3.28892 0.62126,-2.71778 0.6839,-2.76903 0.89312,-0.7307 0.22481,2.19208 0.22481,2.19208 0.80768,0 0.58268,-2.19206 0.58268,-2.19206 1.19461,0.27402 1.02643,4.13669 0.69563,6.42547 -1.18967,8.23062 -1.41576,1.35561 -1.6927,1.43665 -1.29319,0.37842 1.23054,-3.2596 1.37069,-5.18463 0.19312,-2.65078 -3.09189,6.65224 -8.20023,11.94914 -13.95792,14.4731 -1.90211,0.83383 -3.14725,1.53057 -2.76702,1.54833 1.53981,0.0719 6.41721,-2.47608 9.46765,-4.94599 1.78322,-1.44385 3.24225,-2.35526 3.24225,-2.02535 0,1.10768 -5.46803,5.89875 -7.71698,6.76161 -2.2259,0.85402 -2.2259,0.85402 0.63506,0.91335 1.57354,0.0326 2.64775,-0.23219 2.38717,-0.58854 -0.58949,-0.80611 0.53626,-1.5907 5.8796,-4.09775 2.31605,-1.08667 3.94664,-1.61428 3.62354,-1.17246 -0.32317,0.44182 -0.11502,0.80329 0.46217,0.80329 0.63973,0 0.40641,0.61974 -0.59742,1.58698 -1.74826,1.6845 -0.84079,1.41053 3.25029,-0.98128 1.54856,-0.90534 2.41223,-1.0712 2.63513,-0.50609 0.24867,0.63021 0.80819,0.62506 2.23557,-0.0204 2.2899,-1.0357 2.85945,-5.66008 0.60712,-4.92966 -1.64807,0.53447 -1.78616,0.93101 1.73186,-4.9718 1.9123,-3.2086 3.02345,-4.47343 3.02345,-3.44167 0,0.89721 -0.80529,2.96527 -1.78953,4.59572 -1.90174,3.15041 -1.70048,4.36107 0.47172,2.83749 1.72838,-1.21224 1.95714,8.60988 0.23694,10.17605 -0.8786,0.79993 -0.83818,0.87212 0.21597,0.38587 0.81006,-0.37361 0.66598,0.01 -0.38383,1.02028 -1.42373,1.37095 -1.45675,1.54581 -0.21598,1.14346 0.8055,-0.26123 1.46458,-0.13838 1.46458,0.27302 0,0.41138 -1.06994,1.07822 -2.37768,1.48187 -2.37763,0.73388 -2.37763,0.73388 0,0.79157 2.33555,0.0567 3.8255,3.711135 1.51308,3.711135 -0.47556,0 -0.86461,-0.3185 -0.86461,-0.70775 0,-0.38927 -0.64741,-0.4978 -1.43873,-0.24118 -0.85598,0.27759 -1.22195,0.17021 -0.90362,-0.26517 0.30164,-0.41238 -1.30017,-1.15412 -3.66995,-1.699485 -2.31283,-0.53227 -4.10984,-1.32749 -3.99339,-1.76717 0.11625,-0.43967 0.0477,-0.55077 -0.15257,-0.24687 -0.20027,0.30393 -0.72992,0.36168 -1.17663,0.12836 -0.44667,-0.23329 -0.70525,-0.016 -0.57461,0.48137 0.13072,0.49807 3.25288,2.154715 6.93823,3.681475 6.17315,2.55736 6.70063,2.95116 6.70063,5.0024 0,2.2265 0,2.2265 -6.95593,-0.7292 -6.95595,-2.9557 -6.95595,-2.9557 -5.41865,-0.92152 1.80335,2.38629 -0.20554,1.44404 -3.67125,-1.72195 -0.97899,-0.8943 -2.86897,-1.85701 -4.19994,-2.13933 -3.30051,-0.70008 -1.93295,1.52851 2.93913,4.78961 1.91018,1.27859 3.4731,2.62587 3.4731,2.99397 0,1.61093 -2.42548,0.34099 -7.93673,-4.15561 -4.35258,-3.55123 -6.31086,-4.69269 -7.41831,-4.32396 -0.82756,0.27554 -3.5136,0.68135 -5.969,0.90185 -3.9874,0.35803 -4.95411,0.81997 -9.04872,4.32392 -2.52142,2.15772 -5.3612,3.9231 -6.31063,3.9231 -1.39805,0 -0.95164,-0.66462 2.34809,-3.49586 2.24091,-1.92274 4.07436,-3.7004 4.07436,-3.95039 0,-1.26117 -3.69556,0.65801 -7.41916,3.85293 -2.30334,1.97633 -4.96605,3.59332 -5.91711,3.59332 -1.39844,0 -0.93674,-0.67995 2.41368,-3.55465 4.69251,-4.02629 6.89725,-3.57072 -25.390526,-5.24655 -30.559021,-1.586095 -34.583911,-1.02292 -34.583911,4.83907 0,2.17917 -0.389069,3.96213 -0.864598,3.96213 -0.475529,0 -0.864596,-1.66345 -0.864596,-3.69657 0,-2.27831 -0.331718,-3.5233 -0.864599,-3.24497 -0.475527,0.2484 -0.864598,1.91183 -0.864598,3.69656 0,2.29961 -0.35386,3.24498 -1.214624,3.24498 -0.926045,0 -1.099841,-0.72325 -0.7315,-3.04409 z m 119.531457,-0.24399 c 0,-0.20095 -0.19448,-0.36536 -0.43233,-0.36536 -0.2379,0 -0.43229,0.16441 -0.43229,0.36536 0,0.20094 0.19447,0.36534 0.43229,0.36534 0.2379,0 0.43233,-0.1644 0.43233,-0.36534 z m -3.45842,-1.46138 c 0,-0.20095 -0.19448,-0.36536 -0.4323,-0.36536 -0.23789,0 -0.43228,0.16441 -0.43228,0.36536 0,0.20094 0.19448,0.36534 0.43228,0.36534 0.23791,0 0.4323,-0.1644 0.4323,-0.36534 z m -3.45839,-1.46138 c 0,-0.20095 -0.19447,-0.36536 -0.43228,-0.36536 -0.23791,0 -0.43229,0.16441 -0.43229,0.36536 0,0.20094 0.19447,0.36534 0.43229,0.36534 0.23789,0 0.43228,-0.1644 0.43228,-0.36534 z M 54.866498,101.7761 c 1.440347,-0.89008 1.431858,-1.00594 -0.163056,-2.225765 -1.628962,-1.24587 -1.694803,-1.21599 -2.069048,0.938945 -0.426442,2.45553 -0.02941,2.6844 2.23211,1.28682 z m 74.895672,0.57362 c 0,-0.20093 -0.19442,-0.36534 -0.43229,-0.36534 -0.23789,0 -0.43229,0.16441 -0.43229,0.36534 0,0.20096 0.19442,0.36536 0.43229,0.36536 0.2379,0 0.43229,-0.1644 0.43229,-0.36536 z m 38.04231,0 c 0,-0.20093 -0.19448,-0.36534 -0.43231,-0.36534 -0.2379,0 -0.43229,0.16441 -0.43229,0.36534 0,0.20096 0.19447,0.36536 0.43229,0.36536 0.2379,0 0.43231,-0.1644 0.43231,-0.36536 z m -42.99729,-1.5753 c -0.58535,-0.20025 -1.75257,-0.21235 -2.5938,-0.027 -0.84121,0.18523 -0.3623,0.34902 1.06429,0.36392 1.4266,0.014 2.11487,-0.13658 1.52951,-0.33685 z m 9.04381,0.0378 c -0.28724,-0.24281 -1.03303,-0.26876 -1.65714,-0.0577 -0.68973,0.23323 -0.48484,0.40639 0.52234,0.44145 0.91146,0.0316 1.4221,-0.14097 1.1348,-0.38378 z m 29.63049,0.0761 c 0,-0.20094 -0.19443,-0.36536 -0.4323,-0.36536 -0.23788,0 -0.43229,0.1644 -0.43229,0.36536 0,0.20093 0.19443,0.36534 0.43229,0.36534 0.2379,0 0.4323,-0.16441 0.4323,-0.36534 z m -97.699564,-0.7307 c 0,-0.200945 -0.194537,-0.365345 -0.432301,-0.365345 -0.237763,0 -0.432297,0.1644 -0.432297,0.365345 0,0.20093 0.194536,0.36534 0.432297,0.36534 0.237764,0 0.432301,-0.16441 0.432301,-0.36534 z m 43.806304,-0.12176 c -0.31698,-0.267895 -0.83581,-0.267895 -1.15281,0 -0.31697,0.26792 -0.0575,0.48714 0.5764,0.48714 0.63405,0 0.89342,-0.2192 0.57641,-0.48714 z m 32.85473,0 c -0.31697,-0.267895 -0.8358,-0.267895 -1.1528,0 -0.31699,0.26792 -0.0575,0.48714 0.5764,0.48714 0.634,0 0.8934,-0.2192 0.5764,-0.48714 z m 17.58015,0.12176 c 0,-0.200945 -0.19443,-0.365345 -0.43232,-0.365345 -0.2379,0 -0.4323,0.1644 -0.4323,0.365345 0,0.20093 0.19443,0.36534 0.4323,0.36534 0.23789,0 0.43232,-0.16441 0.43232,-0.36534 z M 67.114063,97.245645 c 5.58764,-2.50519 5.803577,-2.53917 13.285117,-2.09035 8.329812,0.49969 14.300034,-0.0903 13.397934,-1.32377 -0.36612,-0.50067 0.0814,-0.59879 1.27286,-0.27919 1.09016,0.29241 1.83747,0.17562 1.83747,-0.28706 0,-0.42896 -0.4539,-0.77992 -1.0087,-0.77992 -0.55477,0 -0.75871,-0.21129 -0.45318,-0.46947 0.30554,-0.25823 1.1318,-0.0653 1.83613,0.42876 1.02403,0.71822 1.66235,0.67228 3.185346,-0.22925 1.82402,-1.07972 1.72491,-1.125 -2.340496,-1.06905 -6.79334,0.0935 -6.87294,0.0727 -5.37528,-1.40108 2.91518,-2.86879 2.21378,-2.90522 -3.128145,-0.1626 -7.928207,4.07058 -17.124276,5.47088 -24.379559,3.71237 -3.832543,-0.92891 -5.505086,0.10273 -3.381604,2.08566 2.287146,2.13583 0.573636,3.61107 -2.251733,1.93862 -1.096939,-0.64933 -2.666668,-1.1806 -3.48829,-1.1806 -0.821621,0 -1.890427,-0.57541 -2.375125,-1.27869 -0.653698,-0.94852 -0.888054,-1.00601 -0.907558,-0.22266 -0.119369,4.79515 6.641687,6.030515 14.274813,2.60822 z m 24.605791,-3.66427 c 0,-0.20093 0.19443,-0.36534 0.43229,-0.36534 0.2379,0 0.43233,0.16441 0.43233,0.36534 0,0.20093 -0.19443,0.36536 -0.43233,0.36536 -0.23789,0 -0.43229,-0.16441 -0.43229,-0.36536 z m 5.40374,5.72693 c -0.5944,-0.2027 -1.56709,-0.2027 -2.16149,0 -0.59441,0.20271 -0.10815,0.36854 1.08075,0.36854 1.18882,0 1.67516,-0.16581 1.08074,-0.36854 z m 51.659716,0.11855 c 0,-0.20094 -0.19443,-0.36534 -0.43228,-0.36534 -0.23791,0 -0.4323,0.1644 -0.4323,0.36534 0,0.20093 0.19442,0.36534 0.4323,0.36534 0.23788,0 0.43228,-0.16441 0.43228,-0.36534 z m 6.62862,-0.12176 c -0.31698,-0.26789 -0.83581,-0.26789 -1.15281,0 -0.31697,0.26792 -0.0575,0.48714 0.57641,0.48714 0.63401,0 0.89341,-0.2192 0.5764,-0.48714 z m -0.60522,-1.15573 c 4.36475,0.0348 5.99443,-0.16661 5.03154,-0.6221 -2.49053,-1.17791 -20.6248,-1.23398 -22.00442,-0.0681 -0.68947,0.58265 -1.83308,0.79941 -2.69013,0.5098 -0.81998,-0.27707 -4.6034,-0.47291 -8.40762,-0.43525 -4.24849,0.0421 -6.46426,-0.17862 -5.74373,-0.57192 0.81813,-0.44664 0.88351,-0.79163 0.21601,-1.14021 -0.52628,-0.27489 -0.9569,-0.15159 -0.9569,0.274 0,0.4256 -0.58359,0.77382 -1.29689,0.77382 -0.71329,0 -1.19963,-0.36733 -1.08074,-0.81629 0.11894,-0.44897 -0.46657,-0.91333 -1.30103,-1.0319 -0.83443,-0.11855 -1.31473,0.0613 -1.06729,0.39956 0.24736,0.33833 -0.91795,1.03314 -2.58967,1.54403 -6.39475,1.95422 -3.04835,2.30982 16.19775,1.7213 10.58052,-0.32354 22.14236,-0.56511 25.69298,-0.53681 z m -36.28429,-0.18383 c 0,-0.20094 0.19443,-0.36534 0.43228,-0.36534 0.23791,0 0.43231,0.1644 0.43231,0.36534 0,0.20093 -0.19443,0.36534 -0.43231,0.36534 -0.23788,0 -0.43228,-0.16441 -0.43228,-0.36534 z m 45.58952,0.65458 c -0.28723,-0.2428 -1.03304,-0.26878 -1.65715,-0.0577 -0.68973,0.23325 -0.48487,0.40639 0.52235,0.44145 0.91141,0.0316 1.42207,-0.14097 1.1348,-0.38376 z m -72.598156,-0.79128 c -0.82661,-0.18283 -2.38289,-0.18963 -3.458377,-0.014 -1.07549,0.17482 -0.399161,0.32443 1.502945,0.33254 1.902132,0.008 2.782082,-0.13497 1.955432,-0.31778 z m 12.327416,-0.0413 c -2.13057,-0.1584 -4.318406,-0.59979 -4.861866,-0.98097 -1.17044,-0.82093 -4.00498,-0.0765 -3.3128,0.87009 0.26305,0.35978 3.08161,0.59667 6.263366,0.52647 4.57852,-0.10093 4.97712,-0.18764 1.9113,-0.41559 z m 70.01547,0.17783 c 0,-0.20094 -0.19447,-0.36534 -0.43229,-0.36534 -0.2379,0 -0.4323,0.1644 -0.4323,0.36534 0,0.20093 0.19447,0.36534 0.4323,0.36534 0.23788,0 0.43229,-0.16441 0.43229,-0.36534 z m -64.84485,-0.7307 c 0,-0.20094 -0.19443,-0.36534 -0.43229,-0.36534 -0.2379,0 -0.4323,0.1644 -0.4323,0.36534 0,0.20095 0.19443,0.36536 0.4323,0.36536 0.23789,0 0.43229,-0.16441 0.43229,-0.36536 z m 55.04607,-0.12176 c -0.31697,-0.26791 -0.8358,-0.26791 -1.15281,0 -0.31697,0.2679 -0.0574,0.48712 0.57641,0.48712 0.63405,0 0.89341,-0.21918 0.5764,-0.48712 z m 7.20497,0.12176 c 0,-0.20094 -0.19447,-0.36534 -0.43228,-0.36534 -0.23791,0 -0.43229,0.1644 -0.43229,0.36534 0,0.20095 0.19447,0.36536 0.43229,0.36536 0.23789,0 0.43228,-0.16441 0.43228,-0.36536 z m 4.32301,0 c 0,-0.20094 -0.19448,-0.36534 -0.43232,-0.36534 -0.23789,0 -0.4323,0.1644 -0.4323,0.36534 0,0.20095 0.19447,0.36536 0.4323,0.36536 0.23791,0 0.43232,-0.16441 0.43232,-0.36536 z m -81.272226,-0.73064 c 0,-0.20096 -0.19443,-0.36534 -0.4323,-0.36534 -0.23789,0 -0.43229,0.1644 -0.43229,0.36534 0,0.20093 0.19443,0.36534 0.43229,0.36534 0.2379,0 0.4323,-0.16441 0.4323,-0.36534 z m 16.427396,0 c 0,-0.20096 -0.19443,-0.36534 -0.43233,-0.36534 -0.23789,0 -0.43229,0.1644 -0.43229,0.36534 0,0.20093 0.19443,0.36534 0.43229,0.36534 0.23789,0 0.43233,-0.16441 0.43233,-0.36534 z m 50.14665,0 c 0,-0.20096 -0.19443,-0.36534 -0.43228,-0.36534 -0.2379,0 -0.4323,0.1644 -0.4323,0.36534 0,0.20093 0.19443,0.36534 0.4323,0.36534 0.23788,0 0.43228,-0.16441 0.43228,-0.36534 z m 12.68079,-0.12176 c -0.31698,-0.26791 -0.8358,-0.26791 -1.1528,0 -0.31698,0.26792 -0.0576,0.48714 0.5764,0.48714 0.63402,0 0.89341,-0.2192 0.5764,-0.48714 z m -77.525626,-0.60882 c 0,-0.20093 -0.19443,-0.36534 -0.43229,-0.36534 -0.2379,0 -0.4323,0.16441 -0.4323,0.36534 0,0.20093 0.19443,0.36534 0.4323,0.36534 0.23789,0 0.43229,-0.16441 0.43229,-0.36534 z m 13.146996,-1.02435 c 3.22135,-1.0513 5.91199,-4.04445 6.37454,-7.09111 0.37714,-2.48422 0.29051,-2.67254 -0.68269,-1.48547 -4.74426,5.78633 -6.23123,7.17822 -9.09693,8.51536 -3.39672,1.58494 -1.37508,1.62128 3.40508,0.0613 z m 4.72135,0.90257 c -0.31698,-0.26791 -0.83576,-0.26791 -1.15277,0 -0.31698,0.2679 -0.0575,0.48712 0.57639,0.48712 0.63402,0 0.89342,-0.2192 0.57638,-0.48712 z m 13.83358,-0.2601 c -0.0793,-0.21003 1.49282,-1.63306 3.49351,-3.16226 2.0007,-1.52921 3.87499,-3.41242 4.1651,-4.18491 0.40586,-1.08068 1.26165,-1.3793 3.71148,-1.29507 2.57865,0.0887 2.73564,0.16701 0.82562,0.4123 -1.42209,0.18263 -3.1117,1.22692 -4.25606,2.63061 -1.04374,1.28027 -2.90052,3.05577 -4.12616,3.94555 -2.51451,1.82547 -2.27773,1.99238 1.31715,0.92844 1.37863,-0.40803 3.4322,-1.88765 4.56344,-3.28809 1.13124,-1.40043 2.44188,-2.54623 2.91256,-2.54623 0.47065,0 -0.21046,1.23303 -1.51364,2.74009 -1.80057,2.08224 -1.09607,1.68756 2.93459,-1.64405 6.34057,-5.24092 9.59023,-10.47202 10.09922,-16.25708 0.36971,-4.20219 0.36971,-4.20219 -0.75129,-0.18343 -1.57206,5.63561 -2.97423,7.64526 -4.55878,6.53388 -1.51088,-1.05971 -1.65195,-6.62127 -0.199,-7.84912 0.80694,-0.68199 0.74334,-0.87684 -0.28626,-0.87684 -1.25299,0 -2.55491,-1.62905 -3.70107,-4.63107 -0.28202,-0.73863 0.10782,-3.14688 0.86617,-5.35167 1.5291,-4.44516 1.11677,-6.23992 -0.48892,-2.1282 -0.55859,1.4304 -1.64539,2.89859 -2.41511,3.26262 -1.80865,0.8554 0.0526,6.21913 2.95211,8.50679 1.31998,1.04149 1.65715,1.82524 1.12856,2.62348 -0.41458,0.62607 -0.88711,3.15367 -1.05004,5.61691 -0.32612,4.92846 -1.42592,6.95199 -1.63098,3.00058 -0.1147,-2.21052 -0.1709,-2.26633 -0.4897,-0.48714 -0.59377,3.31247 -1.68928,2.28142 -2.32917,-2.19205 -1.58125,-11.0551 -1.90371,-12.07746 -4.32342,-13.70806 -2.35689,-1.58826 -2.35689,-1.58826 -0.0294,-3.92658 2.86963,-2.88217 2.36583,-3.58459 -0.99726,-1.39039 -2.4972,1.62927 -2.49575,1.6238 0.28789,-1.0992 1.5386,-1.50512 3.0522,-3.63478 3.36358,-4.73258 0.31142,-1.09778 1.1051,-2.90021 1.76388,-4.00538 0.65879,-1.10517 1.00324,-2.00939 0.76547,-2.00939 -0.23788,0 -1.04892,1.00775 -1.80256,2.23942 -0.75368,1.23167 -3.733,4.20543 -6.62077,6.60832 -2.88773,2.4029 -4.9073,4.31551 -4.48796,4.25025 2.13687,-0.33252 3.78859,0.17341 3.78859,1.16036 0,0.60826 0.36266,1.67689 0.8059,2.37473 3.28936,5.17873 3.89137,18.43994 0.83704,18.43994 -0.95595,0 -0.95543,-1.03256 0.003,-4.51604 0.52888,-1.92366 0.28854,-4.28886 -0.84446,-8.30758 -1.63435,-5.79619 -2.53027,-7.53598 -2.53027,-4.91284 0,0.82774 -0.5283,1.67631 -1.17399,1.88571 -0.64567,0.20937 -1.42461,1.4399 -1.73097,2.73445 -0.65999,2.78883 -3.77472,7.27081 -5.05282,7.27081 -0.54512,0 -0.47559,-0.43213 0.17647,-1.09604 1.68774,-1.71863 0.46085,-1.28186 -1.37907,0.49096 -0.90586,0.87283 -1.20145,1.36794 -0.65689,1.10022 0.54458,-0.26772 1.20359,-0.016 1.46449,0.55788 0.26076,0.57455 0.11503,1.14807 -0.32416,1.27451 -0.44909,0.12936 -0.23855,1.79924 0.48085,3.81678 1.65692,4.64577 1.61637,6.94354 -0.15162,8.5946 -1.33303,1.2448 -1.33018,1.33622 0.0412,1.33622 0.80972,0 2.42629,-0.87004 3.59239,-1.93341 2.4523,-2.23624 2.56697,-2.07145 0.90204,1.29617 -1.18013,2.38696 -1.15535,2.46396 0.79253,2.46396 1.10591,0 1.94589,-0.17182 1.86666,-0.38188 z m 0.18659,-4.20003 c 0.57535,-0.91253 0.77348,-2.03196 0.44027,-2.48763 -0.37145,-0.50792 -0.21959,-0.62675 0.39233,-0.30711 1.42811,0.74594 1.23171,2.28542 -0.44027,3.45107 -1.30557,0.91018 -1.34182,0.84955 -0.39233,-0.65633 z m -0.54559,-9.01024 c 0.17058,-1.2856 -0.41079,-1.77573 -2.81123,-2.37056 -2.62314,-0.65004 -2.76071,-0.78789 -1.03316,-1.03527 1.09612,-0.15699 2.55513,0.10894 3.24224,0.59089 1.02749,0.72065 1.2493,0.57923 1.2493,-0.79638 0,-0.91996 0.2562,-1.45628 0.56892,-1.19184 0.31272,0.26443 1.13398,0.0845 1.82465,-0.40001 1.07327,-0.75277 1.18383,-0.45978 0.76068,2.01574 -0.2722,1.59308 -0.51578,3.06091 -0.54104,3.26186 -0.0262,0.20094 -0.42305,-0.12796 -0.884,-0.7307 -0.72228,-0.94454 -0.83995,-0.92526 -0.85136,0.13958 -0.006,0.67958 -0.40174,1.43851 -0.87654,1.6865 -0.49468,0.25839 -0.77155,-0.24108 -0.64846,-1.16977 z m -3.38764,-4.79684 c 0.31698,-0.26789 0.83578,-0.26789 1.15282,0 0.31697,0.26792 0.0575,0.48714 -0.57641,0.48714 -0.63404,0 -0.89342,-0.2192 -0.57641,-0.48714 z m 2.30562,0.12176 c 0,-0.20094 0.19443,-0.36534 0.43229,-0.36534 0.2379,0 0.43229,0.1644 0.43229,0.36534 0,0.20093 -0.19442,0.36534 -0.43229,0.36534 -0.23789,0 -0.43229,-0.16441 -0.43229,-0.36534 z m 10.77054,17.95235 c 0.88334,-1.20794 -0.95556,-1.49684 -2.64565,-0.41568 -1.58648,1.0149 -1.57815,1.05016 0.2539,1.07265 1.04186,0.012 2.11815,-0.28286 2.39175,-0.65697 z m 26.40716,0.31486 c 0,-0.20095 -0.19443,-0.36534 -0.43231,-0.36534 -0.23788,0 -0.43228,0.16441 -0.43228,0.36534 0,0.20093 0.19443,0.36534 0.43228,0.36534 0.23791,0 0.43231,-0.16441 0.43231,-0.36534 z m 3.45839,-0.36534 c 0,-0.40189 -0.38907,-0.7307 -0.86459,-0.7307 -0.47555,0 -0.86459,0.32881 -0.86459,0.7307 0,0.40186 0.38904,0.73068 0.86459,0.73068 0.47552,0 0.86459,-0.32882 0.86459,-0.73068 z m 9.07828,0 c 0.29377,-0.40189 0.33982,-0.7307 0.10186,-0.7307 -0.23789,0 -0.67277,0.32881 -0.96668,0.7307 -0.29376,0.40186 -0.33982,0.73068 -0.10206,0.73068 0.23789,0 0.67276,-0.32882 0.96666,-0.73068 z m -77.381516,-0.36536 c 0,-0.20093 -0.19443,-0.36534 -0.4323,-0.36534 -0.23789,0 -0.43228,0.16441 -0.43228,0.36534 0,0.20093 0.19443,0.36536 0.43228,0.36536 0.2379,0 0.4323,-0.16441 0.4323,-0.36536 z m 43.662206,-0.36534 c 0.29376,-0.40189 0.33981,-0.7307 0.10194,-0.7307 -0.23789,0 -0.67277,0.32881 -0.96666,0.7307 -0.29378,0.40188 -0.33982,0.7307 -0.10197,0.7307 0.2379,0 0.67273,-0.32882 0.96664,-0.7307 z m 30.69323,0.13136 c 0.71328,-0.27316 1.41325,-0.95606 1.55541,-1.51755 0.19963,-0.78877 -0.25848,-0.73462 -2.01516,0.2382 -1.25057,0.6925 -2.84613,1.07345 -3.54573,0.84657 -0.71433,-0.23167 -1.04035,-0.0959 -0.7437,0.30983 0.59408,0.81234 2.79987,0.86945 4.74918,0.12295 z m -72.62624,-0.49666 c 0,-0.20093 -0.19443,-0.36536 -0.432316,-0.36536 -0.23791,0 -0.43231,0.16441 -0.43231,0.36536 0,0.20093 0.19443,0.36534 0.43231,0.36534 0.237886,0 0.432316,-0.16441 0.432316,-0.36534 z m 46.18686,-5.39123 c 3.39378,-2.91821 4.51452,-4.26777 3.32607,-4.00512 -0.98583,0.21788 -4.04061,2.54689 -6.7884,5.17558 -6.02827,5.76699 -3.68403,4.97452 3.46233,-1.17046 z m 0.21338,5.26944 c -0.31698,-0.2679 -0.83576,-0.2679 -1.15281,0 -0.31697,0.26791 -0.0575,0.48713 0.57641,0.48713 0.63404,0 0.8934,-0.2192 0.5764,-0.48713 z m 14.57694,-0.83313 c -0.26633,-0.22497 -0.96382,-4.6e-4 -1.55034,0.4989 -0.84752,0.72163 -0.74821,0.80558 0.48401,0.40904 0.85268,-0.27441 1.33252,-0.68298 1.06633,-0.90794 z M 58.01464,92.858175 c 0.402055,0.21 1.01254,-0.004 1.356638,-0.47368 0.390731,-0.53429 0.250867,-0.65975 -0.372555,-0.33414 -0.549003,0.28676 -0.998186,0.1538 -0.998186,-0.29557 0,-0.44931 -0.389067,-0.61371 -0.864598,-0.36534 -0.475529,0.24839 -0.833882,1.00759 -0.796342,1.68716 0.04246,0.76807 0.23394,0.88826 0.506145,0.31768 0.240836,-0.50485 0.766841,-0.7461 1.168898,-0.53611 z m 44.08038,0.72333 c 0,-0.20093 -0.19443,-0.36534 -0.4323,-0.36534 -0.2379,0 -0.43229,0.16441 -0.43229,0.36534 0,0.20093 0.19443,0.36536 0.43229,0.36536 0.2379,0 0.4323,-0.16441 0.4323,-0.36536 z m 4.36169,-0.38284 c 0.90982,-0.4115 3.23313,-2.71316 5.16296,-5.11482 1.9298,-2.40164 3.88331,-4.36662 4.34113,-4.36662 0.45781,0 0.8324,-0.62684 0.8324,-1.39299 0,-1.25734 -0.29802,-1.31568 -3.06059,-0.59913 -2.79215,0.72421 -3.01263,0.97845 -2.51361,2.89864 0.55755,2.14524 -2.92106,7.86174 -4.78399,7.86174 -0.45271,0 0.33096,-1.44514 1.74146,-3.2114 3.00214,-3.75935 3.43283,-5.24114 0.63499,-2.18463 -1.06124,1.15936 -2.22845,2.21753 -2.59378,2.35148 -0.36534,0.13397 -0.66424,0.6859 -0.66424,1.22652 0,0.54062 -0.61141,1.49965 -1.35869,2.13116 -1.55141,1.31113 -0.25814,1.53986 2.26196,0.40005 z m 5.1489,-9.8468 c 0,-0.20093 0.19443,-0.36534 0.43229,-0.36534 0.2379,0 0.4323,0.16441 0.4323,0.36534 0,0.20096 -0.19443,0.36536 -0.4323,0.36536 -0.23789,0 -0.43229,-0.1644 -0.43229,-0.36536 z m 6.48447,9.14477 c 0.47555,-0.0731 1.05915,-0.32266 1.29692,-0.55453 0.23788,-0.23188 -0.12026,-0.15059 -0.79538,0.18082 -0.95024,0.46623 -1.08233,0.2863 -0.5844,-0.79622 1.03012,-2.23958 1.01162,-2.65738 -0.13334,-3.01217 -0.61938,-0.19184 -1.08075,0.24557 -1.08075,1.02479 0,0.74782 -0.63425,2.12493 -1.40942,3.06025 -1.33953,1.61624 -1.32881,1.6641 0.21632,0.96532 0.89407,-0.40439 2.01461,-0.79506 2.49014,-0.86818 z m 48.41138,0.7279 c 0.30291,-0.4142 -0.0441,-0.5367 -0.81358,-0.28716 -1.49784,0.48575 -1.77189,1.00949 -0.52824,1.00949 0.44746,0 1.05129,-0.32505 1.34182,-0.72233 z m 4.32912,-0.008 c 0.29376,-0.40189 0.3398,-0.7307 0.10185,-0.7307 -0.2379,0 -0.67277,0.32881 -0.96666,0.7307 -0.2938,0.40187 -0.33983,0.73068 -0.10186,0.73068 0.23788,0 0.67276,-0.32881 0.96667,-0.73068 z m -25.50565,-0.36536 c 0,-0.20093 -0.19443,-0.36534 -0.4323,-0.36534 -0.23789,0 -0.43229,0.16441 -0.43229,0.36534 0,0.20093 0.19443,0.36536 0.43229,0.36536 0.2379,0 0.4323,-0.16441 0.4323,-0.36536 z m 13.83355,0 c 0,-0.20093 -0.19443,-0.36534 -0.43229,-0.36534 -0.2379,0 -0.4323,0.16441 -0.4323,0.36534 0,0.20093 0.19443,0.36536 0.4323,0.36536 0.23789,0 0.43229,-0.16441 0.43229,-0.36536 z m 4.323,0 c 0,-0.20093 -0.19443,-0.36534 -0.43229,-0.36534 -0.23789,0 -0.4323,0.16441 -0.4323,0.36534 0,0.20093 0.19443,0.36536 0.4323,0.36536 0.23789,0 0.43229,-0.16441 0.43229,-0.36536 z M 52.812959,92.120085 c 0,-0.20093 -0.194537,-0.36534 -0.432302,-0.36534 -0.237761,0 -0.432296,0.16441 -0.432296,0.36534 0,0.20093 0.194537,0.36536 0.432296,0.36536 0.237763,0 0.432302,-0.16441 0.432302,-0.36536 z m 17.003756,-0.12175 c -0.317006,-0.26792 -0.835777,-0.26792 -1.152797,0 -0.317007,0.26789 -0.05766,0.48711 0.576399,0.48711 0.63404,0 0.893418,-0.2192 0.576398,-0.48711 z m 5.187586,0 c -0.317006,-0.26792 -0.835776,-0.26792 -1.152797,0 -0.317006,0.26789 -0.05766,0.48711 0.576399,0.48711 0.63404,0 0.893419,-0.2192 0.576398,-0.48711 z m 74.643639,-0.97425 c 0.95105,-0.80375 2.02098,-1.46532 2.37762,-1.47011 1.70203,-0.0228 3.65118,-0.89344 3.24481,-1.44916 -0.25031,-0.34209 0.39605,-1.88027 1.43602,-3.41817 1.89089,-2.79618 1.89089,-2.79618 -0.90985,-0.60534 -1.78198,1.39394 -2.58973,1.72615 -2.22068,0.91337 0.36511,-0.80411 0.17189,-1.27747 -0.52114,-1.27747 -0.60565,0 -0.84521,0.21634 -0.53228,0.48079 0.31271,0.26441 0.0859,0.98516 -0.50438,1.60161 -0.85607,0.89407 -0.85456,1.00984 0.007,0.57214 1.61575,-0.82035 1.30396,0.66694 -0.38211,1.82278 -1.26204,0.86497 -1.35809,0.85215 -0.69891,-0.0931 0.65758,-0.94309 0.56144,-0.95702 -0.68911,-0.0999 -0.79933,0.54787 -1.20071,1.3699 -0.89194,1.82672 0.3088,0.45679 0.24312,0.58681 -0.14606,0.28888 -0.7725,-0.59143 -3.02811,0.69511 -3.02811,1.72717 0,1.0979 1.65257,0.70599 3.45841,-0.82015 z m 13.9539,-0.0435 c 2.04115,-1.50474 2.04115,-1.50474 -0.55265,-0.22116 -3.41381,1.6894 -3.46458,1.72589 -2.40139,1.72589 0.5021,0 1.83143,-0.67713 2.95404,-1.50473 z m 7.2822,-0.52036 c -0.28984,-0.24493 -1.19855,0.14899 -2.01942,0.87524 -1.42678,1.26245 -1.40358,1.28206 0.52696,0.44532 1.11065,-0.48138 1.78228,-1.07563 1.49246,-1.32056 z m 2.10804,1.65975 c 0,-0.20093 -0.19448,-0.36534 -0.43234,-0.36534 -0.23787,0 -0.43228,0.16441 -0.43228,0.36534 0,0.20095 0.19447,0.36534 0.43228,0.36534 0.23791,0 0.43234,-0.16441 0.43234,-0.36534 z m -92.51199,-0.7307 c 0,-0.20093 -0.194537,-0.36534 -0.432301,-0.36534 -0.237763,0 -0.432299,0.16441 -0.432299,0.36534 0,0.20093 0.194536,0.36536 0.432299,0.36536 0.237764,0 0.432301,-0.16441 0.432301,-0.36536 z m 23.34414,0 c 0,-0.20093 -0.19443,-0.36534 -0.43229,-0.36534 -0.23789,0 -0.43229,0.16441 -0.43229,0.36534 0,0.20093 0.19443,0.36536 0.43229,0.36536 0.2379,0 0.43229,-0.16441 0.43229,-0.36536 z m -50.94733,-1.4279 c 0.429469,0.22435 0.536628,-0.12996 0.238124,-0.78739 -0.434356,-0.9566 -0.68868,-1.00066 -1.273753,-0.22064 -0.575304,0.76701 -0.733862,0.72636 -0.74428,-0.19084 -0.02908,-2.54844 -3.032002,-3.81368 -5.986806,-2.52235 -3.089608,1.35026 -3.39615,2.26139 -0.943215,2.80349 1.20151,0.26553 1.750024,0.012 1.797455,-0.82814 0.04319,-0.76601 0.229004,-0.87334 0.506145,-0.29237 0.240834,0.50483 0.741723,0.75919 1.113084,0.56523 0.371363,-0.19405 1.398123,0.32242 2.281688,1.14754 0.901445,0.84182 1.743457,1.15293 1.918592,0.70892 0.171652,-0.43523 0.663488,-0.60779 1.092957,-0.38347 z m 30.196983,0.69728 c 0,-0.20093 -0.194537,-0.36534 -0.4323,-0.36534 -0.237762,0 -0.4323,0.16441 -0.4323,0.36534 0,0.20095 0.194536,0.36536 0.4323,0.36536 0.237763,0 0.4323,-0.16441 0.4323,-0.36536 z m 15.819741,-1.75118 c 7.503456,-3.23297 8.596526,-4.3531 6.581616,-6.74453 -1.66561,-1.97685 -1.92645,-2.06024 -2.90537,-0.92881 -0.77696,0.89797 -1.25124,1.00266 -1.70869,0.37713 -0.85286,-1.1662 -4.130786,2.36907 -4.445906,4.79488 -0.12972,0.99996 -0.92585,2.4622 -1.76883,3.24943 -1.7617,1.64515 -0.99309,1.50976 4.24718,-0.7481 z m 21.357966,1.75118 c 0,-0.20093 -0.19442,-0.36534 -0.4323,-0.36534 -0.23788,0 -0.43228,0.16441 -0.43228,0.36534 0,0.20095 0.19443,0.36536 0.43228,0.36536 0.2379,0 0.4323,-0.16441 0.4323,-0.36536 z m -61.386449,-0.73068 c 0,-0.20093 -0.194536,-0.36534 -0.432295,-0.36534 -0.237763,0 -0.432301,0.16441 -0.432301,0.36534 0,0.20095 0.194538,0.36534 0.432301,0.36534 0.237763,0 0.432295,-0.16441 0.432295,-0.36534 z m 44.094509,0 c 0,-0.20093 -0.19443,-0.36534 -0.43233,-0.36534 -0.23789,0 -0.4323,0.16441 -0.4323,0.36534 0,0.20095 0.19443,0.36534 0.4323,0.36534 0.2379,0 0.43233,-0.16441 0.43233,-0.36534 z m -48.417495,-2.19206 c 0,-0.20095 -0.194538,-0.36534 -0.432301,-0.36534 -0.237763,0 -0.432299,0.16441 -0.432299,0.36534 0,0.20093 0.194536,0.36534 0.432299,0.36534 0.237763,0 0.432301,-0.16441 0.432301,-0.36534 z m 35.448523,0.0433 c 0,-0.17723 -0.449187,-0.55682 -0.998208,-0.84359 -0.618424,-0.32302 -0.76348,-0.20043 -0.381249,0.32223 0.615974,0.8423 1.379457,1.13086 1.379457,0.52136 z m 87.324372,-0.0433 c 0,-0.20095 -0.19447,-0.36534 -0.43228,-0.36534 -0.23791,0 -0.43232,0.16441 -0.43232,0.36534 0,0.20093 0.19448,0.36534 0.43232,0.36534 0.23787,0 0.43228,-0.16441 0.43228,-0.36534 z m -70.89702,-0.7307 c 0,-0.20093 -0.19443,-0.36534 -0.4323,-0.36534 -0.23789,0 -0.43229,0.16441 -0.43229,0.36534 0,0.20094 0.19443,0.36536 0.43229,0.36536 0.2379,0 0.4323,-0.1644 0.4323,-0.36536 z m 13.54537,-0.85245 c -0.31697,-0.26792 -0.57639,-0.0487 -0.57639,0.48711 0,0.53584 0.25945,0.75505 0.57639,0.48714 0.31697,-0.26792 0.31697,-0.70633 0,-0.97425 z m -26.082056,-0.97427 c 0.8607,-0.80375 1.37038,-1.46136 1.13261,-1.46136 -0.23789,0 -1.13649,0.65761 -1.99719,1.46136 -0.8607,0.80377 -1.37038,1.46138 -1.13261,1.46138 0.23789,0 1.1365,-0.65761 1.99719,-1.46138 z m 24.352856,0.24355 c -0.31697,-0.2679 -0.5764,-0.0487 -0.5764,0.48713 0,0.53584 0.25945,0.75505 0.5764,0.48714 0.31698,-0.26792 0.31698,-0.70633 0,-0.97427 z m 59.94547,0.85247 c 0,-0.20093 -0.19448,-0.36534 -0.43233,-0.36534 -0.2379,0 -0.43229,0.16441 -0.43229,0.36534 0,0.20096 0.19447,0.36536 0.43229,0.36536 0.2379,0 0.43233,-0.1644 0.43233,-0.36536 z m -19.88577,-0.73068 c 0,-0.20093 -0.19443,-0.36534 -0.43229,-0.36534 -0.23789,0 -0.43229,0.16441 -0.43229,0.36534 0,0.20096 0.19443,0.36536 0.43229,0.36536 0.23789,0 0.43229,-0.1644 0.43229,-0.36536 z M 50.219163,84.856345 c 0,-0.17723 -0.449184,-0.55684 -0.998181,-0.8436 -0.61845,-0.32301 -0.763496,-0.20044 -0.381276,0.32222 0.615976,0.8423 1.379457,1.13086 1.379457,0.52138 z m 58.504447,-0.89561 c -0.31698,-0.2679 -0.57638,-0.0487 -0.57638,0.48713 0,0.53584 0.25947,0.75505 0.57638,0.48714 0.31697,-0.26792 0.31697,-0.70635 0,-0.97427 z m 50.43488,0.12175 c 0,-0.20093 -0.19443,-0.36534 -0.43229,-0.36534 -0.2379,0 -0.4323,0.16441 -0.4323,0.36534 0,0.20094 0.19443,0.36534 0.4323,0.36534 0.23789,0 0.43229,-0.1644 0.43229,-0.36534 z m -51.01126,-1.46138 c 0,-0.20093 -0.19443,-0.36534 -0.43232,-0.36534 -0.23789,0 -0.43229,0.16441 -0.43229,0.36534 0,0.20094 0.19442,0.36534 0.43229,0.36534 0.23789,0 0.43232,-0.1644 0.43232,-0.36534 z m -0.99415,-4.92704 c -4.44529,-3.71746 -4.88885,-4.51338 -3.03661,-5.44895 0.63623,-0.32139 1.58906,-2.05337 2.11735,-3.84885 1.13344,-3.85229 0.67235,-4.93375 -0.5894,-1.38242 -0.87221,2.45487 -0.87221,2.45487 -0.69774,-0.10253 0.13856,-2.03013 0.5465,-2.57332 1.9791,-2.63459 2.10494,-0.0901 1.34818,6.66484 -0.91254,8.14525 -2.817,1.84468 2.4229,5.24226 5.97527,3.87437 2.53019,-0.97428 2.59487,-1.36469 0.88906,-5.36623 -1.3524,-3.17257 -1.68653,-6.16922 -0.40736,-3.65344 0.74305,1.46138 0.74305,1.46138 0.81978,0 0.0421,-0.80377 1.37553,0.93073 2.96303,3.85443 2.44468,4.50249 3.05248,5.14652 3.97269,4.2095 0.59751,-0.60846 1.40452,-0.94016 1.79332,-0.73709 0.38876,0.20306 0.98839,-0.016 1.3325,-0.48629 0.41756,-0.57096 0.24834,-0.65843 -0.50876,-0.26299 -0.8675,0.45311 -0.99272,0.17883 -0.53223,-1.16581 1.70105,-4.96713 1.61023,-6.24027 -0.58799,-8.24481 -1.19222,-1.08719 -2.30271,-1.63268 -2.46777,-1.21223 -0.16502,0.42047 -0.182,-2.27865 -0.0379,-5.99803 0.26208,-6.76251 0.26208,-6.76251 -1.99431,-3.65708 -2.25621,3.10511 -3.67498,4.13378 -2.68043,1.94346 0.93129,-2.05096 -0.4121,-2.5758 -2.2093,-0.86312 -0.95795,0.91285 0.23756,-1.55424 2.6563,-5.48246 6.99155,-11.35407 5.24101,-10.02258 -4.58677,3.48877 -3.2155,4.42066 -7.08091,8.97786 -8.58981,10.12713 -2.077716,1.58247 -2.253416,1.8784 -0.72411,1.21949 2.66001,-1.14604 2.71285,-1.04556 1.91064,3.63544 -0.37851,2.20872 -0.73671,3.64314 -0.79606,3.18765 -0.26469,-2.03198 -3.994916,-1.49677 -4.179896,0.59971 -0.0997,1.13036 0.19215,2.05519 0.64845,2.05519 0.45637,0 0.82978,-0.38853 0.82978,-0.86343 0,-1.08194 5.120406,3.73558 7.848636,7.3844 1.47194,1.96863 2.31741,2.51815 3.0204,1.96317 0.71013,-0.56063 -0.16699,-1.72666 -3.21718,-4.27757 z m -7.651846,-6.76397 c 0,-0.20093 0.19443,-0.36534 0.43229,-0.36534 0.237896,0 0.432316,0.16441 0.432316,0.36534 0,0.20093 -0.19443,0.36534 -0.432316,0.36534 -0.23789,0 -0.43229,-0.16441 -0.43229,-0.36534 z m 4.322996,-0.7307 c 0,-0.20093 0.19443,-0.36534 0.43229,-0.36534 0.23791,0 0.4323,0.16441 0.4323,0.36534 0,0.20095 -0.19443,0.36536 -0.4323,0.36536 -0.23789,0 -0.43229,-0.16441 -0.43229,-0.36536 z m 17.29197,-4.38412 c 0,-0.20093 0.19443,-0.36534 0.4323,-0.36534 0.23789,0 0.43229,0.16441 0.43229,0.36534 0,0.20094 -0.19443,0.36534 -0.43229,0.36534 -0.2379,0 -0.4323,-0.1644 -0.4323,-0.36534 z m -10.37516,-4.38414 c 0,-0.20093 0.19442,-0.36533 0.43228,-0.36533 0.2379,0 0.4323,0.1644 0.4323,0.36533 0,0.20096 -0.19443,0.36536 -0.4323,0.36536 -0.23789,0 -0.43228,-0.1644 -0.43228,-0.36536 z m -0.21371,-2.40985 c 0.36824,-0.811 0.64178,-0.88906 0.89207,-0.25456 0.25489,0.6465 0.73253,0.52839 1.62672,-0.40226 1.20208,-1.25118 1.22435,-1.24669 0.44214,0.0891 -1.02655,1.75294 -3.73491,2.27228 -2.96093,0.56777 z m -12.322906,22.50378 c 0.29377,-0.40188 0.33981,-0.73067 0.10196,-0.73067 -0.2379,0 -0.67277,0.32879 -0.96667,0.73067 -0.29378,0.40189 -0.33982,0.7307 -0.10197,0.7307 0.23789,0 0.67277,-0.32881 0.96668,-0.7307 z m 57.495756,0.36534 c 0,-0.20093 -0.19443,-0.36534 -0.43229,-0.36534 -0.23789,0 -0.43229,0.16441 -0.43229,0.36534 0,0.20096 0.19443,0.36536 0.43229,0.36536 0.23789,0 0.43229,-0.1644 0.43229,-0.36536 z m 5.18758,0 c 0,-0.20093 -0.19443,-0.36534 -0.43228,-0.36534 -0.2379,0 -0.4323,0.16441 -0.4323,0.36534 0,0.20096 0.19443,0.36536 0.4323,0.36536 0.23788,0 0.43228,-0.1644 0.43228,-0.36536 z m -53.60508,-0.68756 c 0,-0.17722 -0.44918,-0.55682 -0.99816,-0.84358 -0.61847,-0.32303 -0.76349,-0.20043 -0.3813,0.32222 0.61599,0.8423 1.37946,1.13087 1.37946,0.52136 z m -5.18759,-0.77381 c 0,-0.20094 -0.19443,-0.36534 -0.43229,-0.36534 -0.2379,0 -0.4323,0.1644 -0.4323,0.36534 0,0.20095 0.19443,0.36536 0.4323,0.36536 0.23789,0 0.43229,-0.16441 0.43229,-0.36536 z m 12.10439,-0.73068 c 0,-0.60282 -0.29181,-1.10053 -0.64845,-1.10602 -0.35665,-0.006 -1.62112,-0.19785 -2.80993,-0.42753 -2.1615,-0.41759 -2.1615,-0.41759 0,1.08975 2.58449,1.80233 3.45838,1.91447 3.45838,0.4438 z m -40.636103,0 c 0,-0.20094 -0.194538,-0.36534 -0.432301,-0.36534 -0.237763,0 -0.432295,0.1644 -0.432295,0.36534 0,0.20093 0.194536,0.36534 0.432295,0.36534 0.237763,0 0.432301,-0.16441 0.432301,-0.36534 z m 6.052181,0 c 0,-0.20094 -0.194536,-0.36534 -0.432295,-0.36534 -0.237763,0 -0.4323,0.1644 -0.4323,0.36534 0,0.20093 0.194537,0.36534 0.4323,0.36534 0.237763,0 0.432295,-0.16441 0.432295,-0.36534 z m 6.268352,-0.11855 c -0.59444,-0.2027 -1.567092,-0.2027 -2.161509,0 -0.594412,0.20271 -0.108065,0.36856 1.080759,0.36856 1.188816,0 1.675158,-0.16581 1.08075,-0.36856 z m 4.106837,0.11855 c 0,-0.20094 -0.19443,-0.36534 -0.432325,-0.36534 -0.237893,0 -0.432294,0.1644 -0.432294,0.36534 0,0.20093 0.194428,0.36534 0.432294,0.36534 0.237893,0 0.432325,-0.16441 0.432325,-0.36534 z m 9.510557,0 c 0,-0.20094 -0.19443,-0.36534 -0.4323,-0.36534 -0.23789,0 -0.43229,0.1644 -0.43229,0.36534 0,0.20093 0.19443,0.36534 0.43229,0.36534 0.2379,0 0.4323,-0.16441 0.4323,-0.36534 z m -18.156548,-0.73068 c 0,-0.20096 -0.194536,-0.36534 -0.4323,-0.36534 -0.237763,0 -0.432296,0.1644 -0.432296,0.36534 0,0.20093 0.194538,0.36534 0.432296,0.36534 0.237764,0 0.4323,-0.16441 0.4323,-0.36534 z m 60.348764,-6.23149 c -0.33295,-0.21228 -1.01904,-1.19871 -1.52467,-2.19206 -0.72708,-1.42845 -0.80991,-0.90365 -0.39621,2.5099 0.7278,6.00536 1.56853,7.35286 2.09399,3.35623 0.23789,-1.80846 0.15979,-3.46178 -0.1732,-3.67407 z m 17.89734,5.86615 c 0.29376,-0.40189 0.33981,-0.7307 0.10194,-0.7307 -0.23789,0 -0.67274,0.32881 -0.96664,0.7307 -0.29377,0.40186 -0.33981,0.73068 -0.10197,0.73068 0.23791,0 0.67278,-0.32882 0.96666,-0.73068 z m -88.621342,-0.36536 c 0,-0.20094 -0.194537,-0.36534 -0.432302,-0.36534 -0.237763,0 -0.432295,0.1644 -0.432295,0.36534 0,0.20093 0.194536,0.36536 0.432295,0.36536 0.237763,0 0.432302,-0.16441 0.432302,-0.36536 z m 3.458389,0 c 0,-0.20094 -0.194536,-0.36534 -0.432297,-0.36534 -0.237761,0 -0.432301,0.1644 -0.432301,0.36534 0,0.20093 0.194538,0.36536 0.432301,0.36536 0.237763,0 0.432297,-0.16441 0.432297,-0.36536 z m 4.088829,-0.0761 c -0.287302,-0.2428 -1.033014,-0.26876 -1.657146,-0.0577 -0.689719,0.23325 -0.484846,0.40641 0.522359,0.44145 0.911431,0.0316 1.422087,-0.14097 1.134787,-0.38376 z m 6.718654,-1.74247 c 4.848555,-1.03583 11.677244,-4.40505 11.571764,-5.70941 -0.0909,-1.12515 -0.13692,-1.12159 -0.49569,0.0384 -0.22711,0.73493 -1.2141,1.27869 -2.32057,1.27869 -1.05886,0 -2.39207,0.32881 -2.962691,0.7307 -0.754567,0.53141 -0.801724,0.49154 -0.172876,-0.14618 3.715687,-3.76827 -2.523209,-5.62953 -8.246622,-2.46022 -3.0618,1.69545 -2.725946,2.89 0.652017,2.31904 2.619782,-0.4428 2.682295,-0.40573 1.080761,0.64114 -1.685647,1.10185 -1.685401,1.10784 0.02941,0.71773 0.951085,-0.21637 0.482487,0.1642 -1.041249,0.84566 -3.020186,1.35074 -4.911147,3.77083 -2.210784,2.8294 0.837568,-0.292 2.690058,-0.78028 4.116653,-1.08504 z m 3.026086,-3.29623 c 0,-0.20093 0.19443,-0.36534 0.432294,-0.36534 0.237892,0 0.432294,0.16441 0.432294,0.36534 0,0.20093 -0.19443,0.36536 -0.432294,0.36536 -0.237895,0 -0.432294,-0.16441 -0.432294,-0.36536 z m 0,-1.46138 c 0,-0.20093 0.19443,-0.36534 0.432294,-0.36534 0.237892,0 0.432294,0.16441 0.432294,0.36534 0,0.20095 -0.19443,0.36536 -0.432294,0.36536 -0.237895,0 -0.432294,-0.16441 -0.432294,-0.36536 z m 1.729206,-2.19206 c 0,-0.20093 0.19443,-0.36534 0.432296,-0.36534 0.237892,0 0.432292,0.16441 0.432292,0.36534 0,0.20093 -0.19443,0.36536 -0.432292,0.36536 -0.237897,0 -0.432296,-0.16441 -0.432296,-0.36536 z m -3.746599,7.91578 c -0.316973,-0.26789 -0.835798,-0.26789 -1.152803,0 -0.316975,0.26792 -0.05753,0.48714 0.5764,0.48714 0.634047,0 0.893411,-0.2192 0.576403,-0.48714 z m 12.158401,0.0457 c -0.28724,-0.24278 -1.03301,-0.26876 -1.65715,-0.0577 -0.6897,0.23325 -0.48485,0.40639 0.52238,0.44145 0.91141,0.0316 1.42207,-0.14097 1.13477,-0.38376 z m 18.096366,-0.69491 c 0.28365,-0.62501 0.0873,-1.85804 -0.43644,-2.74009 -0.88148,-1.48423 -0.91508,-1.45441 -0.45095,0.40042 0.40814,1.63107 0.1222,2.13251 -1.53602,2.69377 -2.03752,0.68965 -2.03752,0.68965 -0.065,0.73597 1.08487,0.0254 2.20467,-0.46507 2.48844,-1.09007 z m -47.690832,-0.32501 c 0.293906,-0.40187 0.339817,-0.73068 0.102051,-0.73068 -0.237764,0 -0.672758,0.32881 -0.966651,0.73068 -0.293904,0.40188 -0.339814,0.7307 -0.102049,0.7307 0.237763,0 0.67276,-0.32882 0.966649,-0.7307 z m 25.505626,0.36534 c 0,-0.20094 -0.19443,-0.36534 -0.4323,-0.36534 -0.23789,0 -0.43229,0.1644 -0.43229,0.36534 0,0.20095 0.19443,0.36536 0.43229,0.36536 0.2379,0 0.4323,-0.16441 0.4323,-0.36536 z m 6.052196,-0.36534 c -0.713306,-0.38957 -2.075016,-0.68058 -3.026106,-0.64666 -1.42452,0.0509 -1.34838,0.16461 0.43233,0.64666 3.056926,0.82738 4.108666,0.82738 2.593776,0 z m 61.38644,0.36534 c 0,-0.20094 -0.19443,-0.36534 -0.43228,-0.36534 -0.23791,0 -0.43231,0.1644 -0.43231,0.36534 0,0.20095 0.19443,0.36536 0.43231,0.36536 0.23788,0 0.43228,-0.16441 0.43228,-0.36536 z m -90.206367,-1.58316 c -0.317007,-0.26789 -0.83578,-0.26789 -1.1528,0 -0.317006,0.26792 -0.05764,0.48714 0.576401,0.48714 0.634038,0 0.893418,-0.2192 0.576399,-0.48714 z m 7.204981,0.12176 c 0,-0.20093 -0.194537,-0.36534 -0.4323,-0.36534 -0.237763,0 -0.432297,0.16441 -0.432297,0.36534 0,0.20095 0.194536,0.36534 0.432297,0.36534 0.237763,0 0.4323,-0.16441 0.4323,-0.36534 z m 22.479536,0 c 0,-0.20093 -0.19443,-0.36534 -0.43228,-0.36534 -0.23791,0 -0.43231,0.16441 -0.43231,0.36534 0,0.20095 0.19443,0.36534 0.43231,0.36534 0.23788,0 0.43228,-0.16441 0.43228,-0.36534 z m -27.090724,-0.85247 c -0.317007,-0.2679 -0.835779,-0.2679 -1.152799,0 -0.317007,0.26791 -0.05766,0.48713 0.576398,0.48713 0.63404,0 0.893419,-0.2192 0.576401,-0.48713 z m 6.340384,0.12175 c 0,-0.20093 -0.194537,-0.36534 -0.432301,-0.36534 -0.237763,0 -0.432299,0.16441 -0.432299,0.36534 0,0.20095 0.194536,0.36534 0.432299,0.36534 0.237764,0 0.432301,-0.16441 0.432301,-0.36534 z m 18.156554,0 c 0,-0.20093 -0.19442,-0.36534 -0.43229,-0.36534 -0.23789,0 -0.43229,0.16441 -0.43229,0.36534 0,0.20095 0.19442,0.36534 0.43229,0.36534 0.2379,0 0.43229,-0.16441 0.43229,-0.36534 z m -21.903145,-0.85237 c -0.317007,-0.2679 -0.835779,-0.2679 -1.152799,0 -0.317005,0.26791 -0.05766,0.48713 0.5764,0.48713 0.634038,0 0.893419,-0.2192 0.576399,-0.48713 z m 2.593794,-0.7307 c -0.317008,-0.2679 -0.835777,-0.2679 -1.152797,0 -0.317008,0.26791 -0.05766,0.48713 0.576398,0.48713 0.634039,0 0.893418,-0.2192 0.576399,-0.48713 z m 44.959117,-1.46136 c -0.31697,-0.26792 -0.57641,-0.0487 -0.57641,0.48713 0,0.53583 0.25946,0.75503 0.57641,0.48711 0.31697,-0.26789 0.31697,-0.70633 0,-0.97424 z m -48.12931,0.12175 c 0,-0.20093 -0.194536,-0.36534 -0.432299,-0.36534 -0.237766,0 -0.432298,0.16441 -0.432298,0.36534 0,0.20093 0.194537,0.36534 0.432298,0.36534 0.237761,0 0.432299,-0.16441 0.432299,-0.36534 z m -15.850961,-2.61433 c 0,-1.58622 -0.212737,-1.92771 -0.721874,-1.15884 -0.397035,0.59958 -0.485098,1.61161 -0.195697,2.24897 0.750978,1.65392 0.917573,1.45599 0.917571,-1.09013 z m 54.757861,1.88361 c 0,-0.20093 -0.19443,-0.36534 -0.43229,-0.36534 -0.2379,0 -0.4323,0.16441 -0.4323,0.36534 0,0.20095 0.19443,0.36536 0.4323,0.36536 0.23789,0 0.43229,-0.16441 0.43229,-0.36536 z m 47.28429,-3.10543 c -0.21763,-0.70326 -0.3954,-0.12796 -0.3954,1.27873 0,1.40657 0.17809,1.98198 0.3954,1.27869 0.21731,-0.70328 0.21731,-1.85411 0,-2.55742 z m -82.300501,2.00941 c 0.293905,-0.40189 0.339815,-0.73068 0.10205,-0.73068 -0.237763,0 -0.672759,0.32879 -0.966649,0.73068 -0.293905,0.40187 -0.33982,0.73068 -0.10205,0.73068 0.237763,0 0.672758,-0.32881 0.966649,-0.73068 z m 14.265855,0.36534 c 0,-0.20093 -0.19443,-0.36534 -0.4323,-0.36534 -0.23789,0 -0.43229,0.16441 -0.43229,0.36534 0,0.20093 0.19443,0.36534 0.43229,0.36534 0.2379,0 0.4323,-0.16441 0.4323,-0.36534 z M 125.151,69.346965 c -0.31698,-0.2679 -0.57641,-0.0487 -0.57641,0.48713 0,0.53584 0.25945,0.75505 0.57641,0.48713 0.31697,-0.26791 0.31697,-0.70635 0,-0.97426 z m -10.95159,0.12175 c 0,-0.20093 -0.19443,-0.36534 -0.43229,-0.36534 -0.2379,0 -0.4323,0.16441 -0.4323,0.36534 0,0.20095 0.19443,0.36536 0.4323,0.36536 0.23789,0 0.43229,-0.16441 0.43229,-0.36536 z m 38.0382,-3.07789 c -0.94206,-1.24165 -0.96647,-1.24004 -0.49347,0.0322 0.27352,0.73616 0.5283,1.72259 0.56582,2.19208 0.0494,0.61607 0.18658,0.60712 0.4935,-0.0322 0.23398,-0.48722 -0.0195,-1.47364 -0.56585,-2.19208 z m -69.163727,1.61653 c 0,-0.20093 -0.194537,-0.36534 -0.4323,-0.36534 -0.237762,0 -0.4323,0.16441 -0.4323,0.36534 0,0.20095 0.194536,0.36536 0.4323,0.36536 0.237763,0 0.4323,-0.16441 0.4323,-0.36536 z m 16.313241,-1.50561 c -0.78514,-0.66354 -1.92845,-0.9043 -2.85985,-0.60224 -1.32751,0.43052 -1.1935,0.63065 0.92722,1.38458 2.957686,1.05148 3.731756,0.73813 1.93263,-0.78234 z m 25.778076,0.27258 c -0.27613,-0.58289 -0.48088,-0.40976 -0.52234,0.44146 -0.0376,0.77026 0.16664,1.20183 0.45408,0.95902 0.28724,-0.2428 0.31795,-0.87302 0.0683,-1.40048 z m 14.10756,1.23303 c 0,-0.20093 -0.19443,-0.36534 -0.43232,-0.36534 -0.2379,0 -0.4323,0.16441 -0.4323,0.36534 0,0.20093 0.19442,0.36534 0.4323,0.36534 0.23789,0 0.43232,-0.16441 0.43232,-0.36534 z m -53.605084,-0.7307 c 0,-0.20095 -0.194429,-0.36536 -0.432291,-0.36536 -0.237894,0 -0.432294,0.16441 -0.432294,0.36536 0,0.20093 0.194429,0.36534 0.432294,0.36534 0.237893,0 0.432291,-0.16441 0.432291,-0.36534 z m -20.750348,-0.73074 c 0,-0.20093 -0.194537,-0.36534 -0.4323,-0.36534 -0.237761,0 -0.4323,0.16441 -0.4323,0.36534 0,0.20096 0.194536,0.36534 0.4323,0.36534 0.237765,0 0.4323,-0.1644 0.4323,-0.36534 z m 62.827452,-0.85245 c -0.31697,-0.26792 -0.57639,-0.0487 -0.57639,0.48711 0,0.53584 0.25945,0.75505 0.57639,0.48714 0.31698,-0.26792 0.31698,-0.70633 0,-0.97425 z m -64.556648,0.12175 c 0,-0.20095 -0.194537,-0.36534 -0.4323,-0.36534 -0.237763,0 -0.432296,0.16441 -0.432296,0.36534 0,0.20094 0.194537,0.36534 0.432296,0.36534 0.237763,0 0.4323,-0.1644 0.4323,-0.36534 z m 13.781983,-12.36532 c 0.741663,-0.77275 -0.791403,-0.0817 -3.40681,1.53553 -4.664801,2.88459 -6.965215,5.39067 -8.239868,8.97652 -0.548764,1.54378 4.121475,-2.67148 11.646678,-10.51205 z m 47.604475,11.63462 c 0,-0.20093 -0.19443,-0.36534 -0.43229,-0.36534 -0.2379,0 -0.4323,0.16441 -0.4323,0.36534 0,0.20094 0.19443,0.36536 0.4323,0.36536 0.23789,0 0.43229,-0.1644 0.43229,-0.36536 z m -29.396326,-0.7307 c 0,-0.20093 -0.19443,-0.36534 -0.43233,-0.36534 -0.23789,0 -0.43229,0.16441 -0.43229,0.36534 0,0.20096 0.19443,0.36534 0.43229,0.36534 0.2379,0 0.43233,-0.1644 0.43233,-0.36534 z m 67.438636,0 c 0,-0.20093 -0.19443,-0.36534 -0.43232,-0.36534 -0.2379,0 -0.4323,0.16441 -0.4323,0.36534 0,0.20096 0.19443,0.36534 0.4323,0.36534 0.23789,0 0.43232,-0.1644 0.43232,-0.36534 z m -103.155765,-3.8361 c -0.217471,-0.70329 -0.395402,-0.12777 -0.395402,1.2787 0,1.40657 0.177927,1.982 0.395402,1.27869 0.217469,-0.70328 0.217469,-1.85411 0,-2.55739 z m 4.303395,2.25295 c -0.317004,-0.26792 -0.576398,-0.0487 -0.576398,0.48713 0,0.53584 0.259363,0.75503 0.576398,0.48712 0.317008,-0.2679 0.317008,-0.70633 0,-0.97425 z m 34.007534,0.85247 c 0,-0.20095 -0.19443,-0.36534 -0.43233,-0.36534 -0.23789,0 -0.43229,0.16441 -0.43229,0.36534 0,0.20094 0.19443,0.36534 0.43229,0.36534 0.2379,0 0.43233,-0.1644 0.43233,-0.36534 z m 26.370236,-0.36522 c 0.29377,-0.40188 0.33981,-0.7307 0.10196,-0.7307 -0.23789,0 -0.67278,0.32882 -0.96667,0.7307 -0.29378,0.40187 -0.33982,0.73068 -0.10197,0.73068 0.2379,0 0.67274,-0.32881 0.96665,-0.73068 z m 3.02609,0.36534 c 0,-0.20095 -0.19443,-0.36534 -0.43231,-0.36534 -0.23788,0 -0.43228,0.16441 -0.43228,0.36534 0,0.20094 0.19443,0.36534 0.43228,0.36534 0.23791,0 0.43231,-0.1644 0.43231,-0.36534 z m 1.7292,0 c 0,-0.20095 -0.19443,-0.36534 -0.43233,-0.36534 -0.23788,0 -0.43229,0.16441 -0.43229,0.36534 0,0.20094 0.19443,0.36534 0.43229,0.36534 0.2379,0 0.43233,-0.1644 0.43233,-0.36534 z m 25.0541,-3.7687 c -0.0262,-0.79796 -3.39459,2.83245 -3.41995,3.68458 -0.01,0.35559 0.75891,-0.18944 1.70999,-1.21129 0.95105,-1.02182 1.72051,-2.13478 1.70996,-2.47329 z m 6.50372,3.40336 c 0.29376,-0.40188 0.33982,-0.7307 0.10196,-0.7307 -0.2379,0 -0.67277,0.32882 -0.96667,0.7307 -0.29378,0.40187 -0.33982,0.73068 -0.10197,0.73068 0.23789,0 0.67274,-0.32881 0.96664,-0.73068 z M 73.1854,60.883175 c 2.539401,-2.37473 2.539401,-2.37473 -0.270541,-0.22863 -2.619259,2.00046 -3.207356,2.60337 -2.539401,2.60337 0.148809,0 1.413272,-1.06864 2.809944,-2.37472 z m 26.562774,-0.67922 c 3.365526,-2.98994 3.396886,-3.06668 1.496606,-3.66075 -1.544836,-0.48296 -1.735776,-0.8157 -0.93566,-1.63047 0.6881,-0.70066 0.7192,-1.17308 0.0987,-1.49718 -0.498596,-0.26043 -0.933926,-0.0431 -0.967326,0.48296 -0.035,0.5501 -0.31045,0.42642 -0.64846,-0.29112 -0.41308,-0.87689 -1.27143,0.37149 -2.88888,4.20147 -2.7691,6.55697 -1.63489,7.26346 3.84503,2.39509 z m -0.24705,2.6886 c 0,-0.20093 -0.19442,-0.36534 -0.43228,-0.36534 -0.23789,0 -0.43229,0.16441 -0.43229,0.36534 0,0.20094 0.19442,0.36536 0.43229,0.36536 0.23789,0 0.43228,-0.1644 0.43228,-0.36536 z m 23.344156,-0.73068 c 0,-0.20093 -0.19443,-0.36534 -0.43229,-0.36534 -0.2379,0 -0.4323,0.16441 -0.4323,0.36534 0,0.20094 0.19443,0.36534 0.4323,0.36534 0.23789,0 0.43229,-0.1644 0.43229,-0.36534 z m -57.927952,-0.7307 c 0,-0.20093 -0.194537,-0.36533 -0.4323,-0.36533 -0.237761,0 -0.4323,0.1644 -0.4323,0.36533 0,0.20096 0.194536,0.36536 0.4323,0.36536 0.237765,0 0.4323,-0.1644 0.4323,-0.36536 z m 37.609992,-1.09601 c 0.29377,-0.40189 0.33982,-0.7307 0.10196,-0.7307 -0.23789,0 -0.67275,0.32881 -0.96664,0.7307 -0.29378,0.40186 -0.33981,0.73068 -0.10197,0.73068 0.2379,0 0.67278,-0.32882 0.96665,-0.73068 z m 25.07933,-2.19206 c 1.13984,0 10.13745,-8.84235 9.52461,-9.36026 -0.1928,-0.16301 -3.42142,2.36946 -7.17453,5.62768 -3.75312,3.25822 -6.59935,6.11375 -6.32502,6.34561 0.27449,0.23187 1.03526,-0.26123 1.6909,-1.09574 0.65565,-0.83451 1.68346,-1.51729 2.28404,-1.51729 z m 36.73943,2.5574 c 0,-0.20094 -0.19443,-0.36534 -0.4323,-0.36534 -0.23789,0 -0.43229,0.1644 -0.43229,0.36534 0,0.20095 0.19443,0.36534 0.43229,0.36534 0.2379,0 0.4323,-0.16441 0.4323,-0.36534 z m -70.897026,-0.7307 c 0,-0.20094 -0.19443,-0.36534 -0.43229,-0.36534 -0.2379,0 -0.43229,0.1644 -0.43229,0.36534 0,0.20095 0.19442,0.36536 0.43229,0.36536 0.23789,0 0.43229,-0.16441 0.43229,-0.36536 z m 73.923116,-1.09602 c 0.86068,-0.80376 1.37038,-1.46138 1.1326,-1.46138 -0.23789,0 -1.13649,0.65762 -1.99719,1.46138 -0.8607,0.80375 -1.37038,1.46138 -1.13261,1.46138 0.23789,0 1.1365,-0.65763 1.9972,-1.46138 z m -73.058526,-1.09604 c 0,-0.20094 -0.19443,-0.36534 -0.4323,-0.36534 -0.23789,0 -0.43229,0.1644 -0.43229,0.36534 0,0.20093 0.19443,0.36536 0.43229,0.36536 0.2379,0 0.4323,-0.16441 0.4323,-0.36536 z m 10.375176,0 c 0,-0.20094 -0.19443,-0.36534 -0.4323,-0.36534 -0.23789,0 -0.43229,0.1644 -0.43229,0.36534 0,0.20093 0.19443,0.36536 0.43229,0.36536 0.23791,0 0.4323,-0.16441 0.4323,-0.36536 z m -36.745402,-1.09602 c 0.293903,-0.40189 0.33982,-0.7307 0.10205,-0.7307 -0.237763,0 -0.672755,0.32881 -0.966649,0.7307 -0.293905,0.40186 -0.339817,0.73068 -0.10205,0.73068 0.237763,0 0.672756,-0.32882 0.966649,-0.73068 z m 60.089552,-3.4586 c 0,-0.55648 0.3622,-0.82261 0.80485,-0.5914 0.44268,0.23121 1.02813,0.11514 1.30103,-0.25806 0.27287,-0.37317 -0.18659,-0.5681 -1.02101,-0.43319 -0.83442,0.13497 -2.5871,0.27046 -3.89479,0.3012 -2.33894,0.0551 -3.54518,3.20978 -1.79336,4.69028 0.77884,0.65821 4.60328,-2.42311 4.60328,-3.70883 z m -4.32297,3.09324 c 0,-0.20094 0.19443,-0.36534 0.4323,-0.36534 0.23789,0 0.43229,0.1644 0.43229,0.36534 0,0.20095 -0.19443,0.36536 -0.43229,0.36536 -0.2379,0 -0.4323,-0.16441 -0.4323,-0.36536 z m 38.9069,0 c 0,-0.20094 -0.19443,-0.36534 -0.43232,-0.36534 -0.2379,0 -0.4323,0.1644 -0.4323,0.36534 0,0.20095 0.19443,0.36536 0.4323,0.36536 0.23789,0 0.43232,-0.16441 0.43232,-0.36536 z m 6.91677,0 c 0,-0.20094 -0.19448,-0.36534 -0.43228,-0.36534 -0.23791,0 -0.43232,0.1644 -0.43232,0.36534 0,0.20095 0.19447,0.36536 0.43232,0.36536 0.23787,0 0.43228,-0.16441 0.43228,-0.36536 z m -74.355406,-0.73068 c 0,-0.20094 -0.19443,-0.36534 -0.43233,-0.36534 -0.23789,0 -0.43229,0.1644 -0.43229,0.36534 0,0.20093 0.19443,0.36534 0.43229,0.36534 0.2379,0 0.43233,-0.16441 0.43233,-0.36534 z m 63.547936,-0.36534 c 0.29376,-0.40189 0.33981,-0.73068 0.10196,-0.73068 -0.23789,0 -0.67277,0.32879 -0.96664,0.73068 -0.29377,0.40186 -0.33981,0.73068 -0.10196,0.73068 0.2379,0 0.67273,-0.32882 0.96664,-0.73068 z m -13.40127,-0.36534 c 0,-0.20095 -0.19443,-0.36534 -0.43229,-0.36534 -0.23789,0 -0.43229,0.16441 -0.43229,0.36534 0,0.20093 0.19443,0.36534 0.43229,0.36534 0.23789,0 0.43229,-0.16441 0.43229,-0.36534 z m 25.07336,0 c 0,-0.20095 -0.19448,-0.36534 -0.43233,-0.36534 -0.23791,0 -0.43229,0.16441 -0.43229,0.36534 0,0.20093 0.19447,0.36534 0.43229,0.36534 0.2379,0 0.43233,-0.16441 0.43233,-0.36534 z m -98.56418,-1.46138 c 0,-0.20095 -0.194537,-0.36534 -0.432298,-0.36534 -0.237763,0 -0.432298,0.16441 -0.432298,0.36534 0,0.20093 0.194537,0.36534 0.432298,0.36534 0.237764,0 0.432298,-0.16441 0.432298,-0.36534 z m 24.208744,0 c 0,-0.20095 -0.19443,-0.36534 -0.43229,-0.36534 -0.2379,0 -0.4323,0.16441 -0.4323,0.36534 0,0.20093 0.19443,0.36534 0.4323,0.36534 0.23789,0 0.43229,-0.16441 0.43229,-0.36534 z m 6.916796,0 c 0,-0.20095 -0.19443,-0.36534 -0.43233,-0.36534 -0.23789,0 -0.4323,0.16441 -0.4323,0.36534 0,0.20093 0.19443,0.36534 0.4323,0.36534 0.2379,0 0.43233,-0.16441 0.43233,-0.36534 z m 14.68059,-2.5283 c 1.98543,-3.28904 2.08157,-3.68256 0.89973,-3.68256 -1.08488,0 -4.4434,5.51504 -3.72712,6.12036 0.85689,0.7242 0.98558,0.61328 2.82739,-2.4378 z m 28.54928,2.5283 c 0,-0.20095 -0.19443,-0.36534 -0.43229,-0.36534 -0.23789,0 -0.4323,0.16441 -0.4323,0.36534 0,0.20093 0.19443,0.36534 0.4323,0.36534 0.23789,0 0.43229,-0.16441 0.43229,-0.36534 z m 22.47955,0 c 0,-0.20095 -0.19447,-0.36534 -0.43228,-0.36534 -0.23791,0 -0.43231,0.16441 -0.43231,0.36534 0,0.20093 0.19447,0.36534 0.43231,0.36534 0.2379,0 0.43228,-0.16441 0.43228,-0.36534 z m -86.862548,-1.85431 c 1.568252,-1.46451 1.560537,-1.47837 -0.469923,-0.84357 -1.135393,0.35495 -2.214082,1.02497 -2.397079,1.48896 -0.532379,1.34976 1.131627,0.97518 2.867002,-0.64539 z m 26.340708,1.12361 c 0,-0.20093 -0.19443,-0.36534 -0.43232,-0.36534 -0.23789,0 -0.43229,0.16441 -0.43229,0.36534 0,0.20093 0.19442,0.36536 0.43229,0.36536 0.23789,0 0.43232,-0.16441 0.43232,-0.36536 z m 53.71535,-0.91335 c 1.07545,-1.15892 1.04486,-1.18477 -0.32646,-0.27589 -1.4402,0.95454 -1.89821,1.55458 -1.18663,1.55458 0.17942,0 0.86041,-0.57543 1.51305,-1.27871 z m 8.53571,0.91335 c 0,-0.20093 -0.19448,-0.36534 -0.43233,-0.36534 -0.23791,0 -0.43229,0.16441 -0.43229,0.36534 0,0.20093 0.19447,0.36536 0.43229,0.36536 0.2379,0 0.43233,-0.16441 0.43233,-0.36536 z m -73.490846,-0.73068 c 0,-0.20093 -0.19443,-0.36534 -0.4323,-0.36534 -0.23789,0 -0.43229,0.16441 -0.43229,0.36534 0,0.20093 0.19443,0.36534 0.43229,0.36534 0.2379,0 0.4323,-0.16441 0.4323,-0.36534 z m 25.073346,0 c 0,-0.20093 -0.19443,-0.36534 -0.43229,-0.36534 -0.2379,0 -0.4323,0.16441 -0.4323,0.36534 0,0.20093 0.19443,0.36534 0.4323,0.36534 0.23789,0 0.43229,-0.16441 0.43229,-0.36534 z m -21.03854,-1.58315 c -0.31697,-0.26792 -0.57641,-0.0487 -0.57641,0.48711 0,0.53583 0.25948,0.75505 0.57641,0.48713 0.31697,-0.26791 0.31697,-0.70633 0,-0.97424 z m -1.441016,0.12175 c 0,-0.20095 -0.19443,-0.36536 -0.4323,-0.36536 -0.23789,0 -0.43229,0.16441 -0.43229,0.36536 0,0.20093 0.19443,0.36534 0.43229,0.36534 0.2379,0 0.4323,-0.16441 0.4323,-0.36534 z m 10.375186,0 c 0,-0.20095 -0.19443,-0.36536 -0.4323,-0.36536 -0.2379,0 -0.4323,0.16441 -0.4323,0.36536 0,0.20093 0.19443,0.36534 0.4323,0.36534 0.2379,0 0.4323,-0.16441 0.4323,-0.36534 z m 13.83358,0 c 0,-0.20095 -0.19443,-0.36536 -0.43232,-0.36536 -0.2379,0 -0.4323,0.16441 -0.4323,0.36536 0,0.20093 0.19443,0.36534 0.4323,0.36534 0.23788,0 0.43232,-0.16441 0.43232,-0.36534 z m -38.906909,-0.7307 c 0,-0.20093 -0.194428,-0.36534 -0.432325,-0.36534 -0.237765,0 -0.432285,0.16441 -0.432285,0.36534 0,0.20095 0.194537,0.36534 0.432285,0.36534 0.237892,0 0.432325,-0.16441 0.432325,-0.36534 z m 12.968973,0 c 0,-0.20093 -0.19443,-0.36534 -0.43233,-0.36534 -0.23789,0 -0.43229,0.16441 -0.43229,0.36534 0,0.20095 0.19443,0.36534 0.43229,0.36534 0.2379,0 0.43233,-0.16441 0.43233,-0.36534 z m 34.583906,0 c 0,-0.20093 -0.19443,-0.36534 -0.4323,-0.36534 -0.23789,0 -0.43229,0.16441 -0.43229,0.36534 0,0.20095 0.19443,0.36534 0.43229,0.36534 0.2379,0 0.4323,-0.16441 0.4323,-0.36534 z m -45.823707,-0.73068 c 0,-0.20095 -0.194429,-0.36536 -0.432293,-0.36536 -0.237892,0 -0.432294,0.16441 -0.432294,0.36536 0,0.20093 0.19443,0.36534 0.432294,0.36534 0.237894,0 0.432293,-0.16441 0.432293,-0.36534 z m 85.595197,0 c 0,-0.20095 -0.19448,-0.36536 -0.43229,-0.36536 -0.2379,0 -0.43231,0.16441 -0.43231,0.36536 0,0.20093 0.19447,0.36534 0.43231,0.36534 0.2379,0 0.43229,-0.16441 0.43229,-0.36534 z m -90.782772,-0.7307 c 0,-0.20093 -0.194538,-0.36536 -0.432301,-0.36536 -0.237763,0 -0.432297,0.16441 -0.432297,0.36536 0,0.20093 0.194536,0.36534 0.432297,0.36534 0.237763,0 0.432301,-0.16441 0.432301,-0.36534 z m 17.291956,0 c 0,-0.20093 -0.19442,-0.36536 -0.43229,-0.36536 -0.23789,0 -0.43229,0.16441 -0.43229,0.36536 0,0.20093 0.19442,0.36534 0.43229,0.36534 0.2379,0 0.43229,-0.16441 0.43229,-0.36534 z m 1.729196,0 c 0,-0.20093 -0.19443,-0.36536 -0.432316,-0.36536 -0.23789,0 -0.43229,0.16441 -0.43229,0.36536 0,0.20093 0.19443,0.36534 0.43229,0.36534 0.237896,0 0.432316,-0.16441 0.432316,-0.36534 z m 1.72918,0 c 0,-0.20093 -0.19443,-0.36536 -0.43229,-0.36536 -0.2379,0 -0.4323,0.16441 -0.4323,0.36536 0,0.20093 0.19443,0.36534 0.4323,0.36534 0.23789,0 0.43229,-0.16441 0.43229,-0.36534 z m 9.5106,0 c 0,-0.20093 -0.19443,-0.36536 -0.4323,-0.36536 -0.23789,0 -0.43228,0.16441 -0.43228,0.36536 0,0.20093 0.19442,0.36534 0.43228,0.36534 0.2379,0 0.4323,-0.16441 0.4323,-0.36534 z m 19.02113,0 c 0,-0.20093 -0.19443,-0.36536 -0.43228,-0.36536 -0.2379,0 -0.4323,0.16441 -0.4323,0.36536 0,0.20093 0.19443,0.36534 0.4323,0.36534 0.23788,0 0.43228,-0.16441 0.43228,-0.36534 z m -9.51055,-0.73066 c 0,-0.20093 -0.19443,-0.36534 -0.43232,-0.36534 -0.23789,0 -0.43229,0.16441 -0.43229,0.36534 0,0.20095 0.19443,0.36534 0.43229,0.36534 0.23789,0 0.43232,-0.16441 0.43232,-0.36534 z m 20.31804,-0.36534 c 0.29376,-0.40188 0.3398,-0.73068 0.10195,-0.73068 -0.23789,0 -0.67274,0.3288 -0.96664,0.73068 -0.29377,0.40189 -0.33981,0.73068 -0.10197,0.73068 0.23791,0 0.67278,-0.32879 0.96666,-0.73068 z m -3.89068,-1.09602 c 0,-0.20095 -0.19443,-0.36536 -0.4323,-0.36536 -0.23789,0 -0.43229,0.16441 -0.43229,0.36536 0,0.20094 0.19443,0.36534 0.43229,0.36534 0.23789,0 0.4323,-0.1644 0.4323,-0.36534 z m -37.17772,-0.7307 c 0,-0.20093 -0.19443,-0.36534 -0.432316,-0.36534 -0.23789,0 -0.43229,0.16441 -0.43229,0.36534 0,0.20094 0.19443,0.36534 0.43229,0.36534 0.237896,0 0.432316,-0.1644 0.432316,-0.36534 z m 13.83357,-0.73068 c 0,-0.20095 -0.19443,-0.36536 -0.43229,-0.36536 -0.2379,0 -0.4323,0.16441 -0.4323,0.36536 0,0.20094 0.19443,0.36534 0.4323,0.36534 0.23789,0 0.43229,-0.1644 0.43229,-0.36534 z m 63.54793,-0.36536 c 0.29377,-0.40186 0.33982,-0.73068 0.10185,-0.73068 -0.23789,0 -0.67271,0.32882 -0.96664,0.73068 -0.29378,0.40189 -0.3398,0.7307 -0.10186,0.7307 0.23791,0 0.67277,-0.32881 0.96665,-0.7307 z M 72.644343,38.779855 c 0.01805,-0.82348 -2.960033,2.1518 -4.388079,4.38413 -0.514172,0.80376 0.259232,0.31053 1.718655,-1.09604 1.459431,-1.40657 2.660674,-2.88621 2.669424,-3.28809 z m 61.440837,5.11481 c 0,-0.20093 -0.19443,-0.36534 -0.43232,-0.36534 -0.23791,0 -0.43231,0.16441 -0.43231,0.36534 0,0.20096 0.19443,0.36534 0.43231,0.36534 0.23788,0 0.43232,-0.1644 0.43232,-0.36534 z m 7.78138,-0.73068 c 0,-0.20095 -0.19443,-0.36534 -0.43232,-0.36534 -0.23791,0 -0.43231,0.16441 -0.43231,0.36534 0,0.20094 0.19443,0.36534 0.43231,0.36534 0.23788,0 0.43232,-0.1644 0.43232,-0.36534 z m -25.93794,-0.7307 c 0,-0.20093 -0.19443,-0.36534 -0.43232,-0.36534 -0.2379,0 -0.4323,0.16441 -0.4323,0.36534 0,0.20096 0.19443,0.36536 0.4323,0.36536 0.23789,0 0.43232,-0.1644 0.43232,-0.36536 z m 6.05217,-0.73068 c 0,-0.20093 -0.19443,-0.36534 -0.43229,-0.36534 -0.2379,0 -0.4323,0.16441 -0.4323,0.36534 0,0.20094 0.19443,0.36534 0.4323,0.36534 0.23789,0 0.43229,-0.1644 0.43229,-0.36534 z m 13.83356,0 c 0,-0.20093 -0.19443,-0.36534 -0.4323,-0.36534 -0.23788,0 -0.43228,0.16441 -0.43228,0.36534 0,0.20094 0.19443,0.36534 0.43228,0.36534 0.2379,0 0.4323,-0.1644 0.4323,-0.36534 z m 9.94288,-1.09603 c 0.29377,-0.40187 0.33982,-0.73068 0.10197,-0.73068 -0.23791,0 -0.67277,0.32881 -0.96666,0.73068 -0.29376,0.40188 -0.33981,0.73069 -0.10193,0.73069 0.23788,0 0.67273,-0.32881 0.96663,-0.73069 z m -28.09943,-0.36534 c 0,-0.20094 -0.19443,-0.36534 -0.4323,-0.36534 -0.23789,0 -0.43229,0.1644 -0.43229,0.36534 0,0.20093 0.19443,0.36534 0.43229,0.36534 0.2379,0 0.4323,-0.16441 0.4323,-0.36534 z m 2.59379,0 c 0,-0.20094 -0.19442,-0.36534 -0.4323,-0.36534 -0.23788,0 -0.43228,0.1644 -0.43228,0.36534 0,0.20093 0.19443,0.36534 0.43228,0.36534 0.2379,0 0.4323,-0.16441 0.4323,-0.36534 z m 2.59379,-0.73068 c 0,-0.20096 -0.19443,-0.36536 -0.43229,-0.36536 -0.2379,0 -0.4323,0.1644 -0.4323,0.36536 0,0.20093 0.19443,0.36534 0.4323,0.36534 0.23788,0 0.43229,-0.16441 0.43229,-0.36534 z m 14.69818,0 c 0,-0.20096 -0.19443,-0.36536 -0.4323,-0.36536 -0.23789,0 -0.43229,0.1644 -0.43229,0.36536 0,0.20093 0.19443,0.36534 0.43229,0.36534 0.23789,0 0.4323,-0.16441 0.4323,-0.36534 z m -16.42736,-0.7307 c 0,-0.20094 -0.19443,-0.36534 -0.43232,-0.36534 -0.23789,0 -0.43229,0.1644 -0.43229,0.36534 0,0.20093 0.19443,0.36534 0.43229,0.36534 0.23789,0 0.43232,-0.16441 0.43232,-0.36534 z m 27.66711,0 c 0,-0.20094 -0.19443,-0.36534 -0.43228,-0.36534 -0.23791,0 -0.4323,0.1644 -0.4323,0.36534 0,0.20093 0.19442,0.36534 0.4323,0.36534 0.23788,0 0.43228,-0.16441 0.43228,-0.36534 z m -33.4311,70.024295 c 0.31699,-0.26792 0.83577,-0.26792 1.15282,0 0.31697,0.2679 0.0575,0.48711 -0.57641,0.48711 -0.63404,0 -0.89344,-0.21917 -0.57641,-0.48711 z m 53.31686,-1.33961 c 0,-0.20093 0.19447,-0.36534 0.43232,-0.36534 0.23787,0 0.43228,0.16441 0.43228,0.36534 0,0.20094 -0.19448,0.36536 -0.43228,0.36536 -0.23791,0 -0.43232,-0.1644 -0.43232,-0.36536 z m 0.8646,-19.728575 c 0,-0.20095 0.19447,-0.36534 0.43229,-0.36534 0.2379,0 0.43233,0.16441 0.43233,0.36534 0,0.20093 -0.19448,0.36534 -0.43233,0.36534 -0.23791,0 -0.43229,-0.16441 -0.43229,-0.36534 z m 2.88201,-0.12175 c 0.31696,-0.2679 0.83576,-0.2679 1.1528,0 0.31699,0.26792 0.0576,0.48713 -0.5764,0.48713 -0.63405,0 -0.89344,-0.21919 -0.5764,-0.48713 z m -3.74661,-2.94014 c 0,-0.42786 0.56546,-1.17454 1.25659,-1.65929 3.23886,-2.27168 4.6763,-10.84625 2.5656,-15.30434 -1.28773,-2.71989 -1.26282,-3.08446 0.43762,-6.40831 1.79971,-3.51795 1.79979,-3.52103 0.0294,-1.69763 -4.48628,4.61793 -4.58952,4.87487 -3.16639,7.88077 1.17962,2.49152 1.78848,6.33185 1.55578,9.813 -0.0868,1.29819 -5.2251,6.70159 -5.86143,6.16379 -0.19802,-0.16741 0.63192,-1.53947 1.84424,-3.04923 1.21234,-1.50979 2.24543,-3.27459 2.29584,-3.9218 0.2123,-2.72831 -0.33591,-5.7174 -1.47212,-8.02484 -1.69155,-3.43526 -1.54695,-4.34132 1.16434,-7.29608 1.30773,-1.42512 3.54488,-4.39524 4.97146,-6.60027 3.01744,-4.66393 4.75531,-5.57001 4.75531,-2.47926 0,1.15876 -0.32351,2.4192 -0.71884,2.80098 -3.02345,2.9199 -5.06519,9.54408 -3.92997,12.75051 1.44776,4.08919 1.47861,6.37527 0.1429,10.5959 -0.93695,2.96052 -5.86924,8.36921 -5.86924,6.4361 z m 6.62858,-28.47945 c -0.31697,-0.26791 -0.5764,-0.0487 -0.5764,0.48712 0,0.53585 0.25947,0.75505 0.5764,0.48713 0.31698,-0.26792 0.31698,-0.70633 0,-0.97425 z m 1.1528,-1.33958 c 0,-0.20095 -0.19446,-0.36536 -0.43228,-0.36536 -0.2379,0 -0.4323,0.16441 -0.4323,0.36536 0,0.20093 0.19446,0.36534 0.4323,0.36534 0.2379,0 0.43228,-0.16441 0.43228,-0.36534 z m 1.29689,-1.82674 c 0.29377,-0.40187 0.33982,-0.73068 0.10185,-0.73068 -0.23789,0 -0.67271,0.32881 -0.96664,0.73068 -0.29378,0.40188 -0.3398,0.7307 -0.10186,0.7307 0.23791,0 0.67277,-0.32882 0.96665,-0.7307 z m 0,14.61377 c 0.29377,-0.40188 0.72892,-0.7307 0.96666,-0.7307 0.23791,0 0.1919,0.32882 -0.10185,0.7307 -0.29377,0.40187 -0.72887,0.73068 -0.96667,0.73068 -0.2379,0 -0.19189,-0.32881 0.10208,-0.73068 z M 72.69871,51.932285 c 0,-0.20093 0.194537,-0.36534 0.432296,-0.36534 0.237763,0 0.432299,0.16441 0.432299,0.36534 0,0.20093 -0.194536,0.36534 -0.432299,0.36534 -0.237761,0 -0.432296,-0.16441 -0.432296,-0.36534 z m -6.916784,-3.65344 c 0,-0.20093 0.194536,-0.36536 0.432299,-0.36536 0.237763,0 0.432298,0.16441 0.432298,0.36536 0,0.20093 -0.194537,0.36534 -0.432298,0.36534 -0.237763,0 -0.432299,-0.16441 -0.432299,-0.36534 z m 102.022554,-0.7307 c 0,-0.20093 0.19447,-0.36534 0.43231,-0.36534 0.2379,0 0.43228,0.16441 0.43228,0.36534 0,0.20095 -0.19447,0.36534 -0.43228,0.36534 -0.23791,0 -0.43231,-0.16441 -0.43231,-0.36534 z M 66.646523,46.817425 c 0,-0.20093 0.194537,-0.36534 0.4323,-0.36534 0.237761,0 0.4323,0.16441 0.4323,0.36534 0,0.20094 -0.194537,0.36534 -0.4323,0.36534 -0.237763,0 -0.4323,-0.1644 -0.4323,-0.36534 z m 57.928067,-3.65344 c 0,-0.20095 0.19443,-0.36534 0.43228,-0.36534 0.2379,0 0.4323,0.16441 0.4323,0.36534 0,0.20094 -0.19443,0.36534 -0.4323,0.36534 -0.23788,0 -0.43228,-0.1644 -0.43228,-0.36534 z"
       id="path181" /></g></svg>
